<svg width="134" height="32" viewBox="0 0 134 32" fill="none" xmlns="http://www.w3.org/2000/svg">
<path d="M18.8972 0.920166H19.6194C19.7486 4.4615 16.6416 8.09438 12.6876 8.03196C12.6207 4.63211 15.3489 1.5735 18.8972 0.920166ZM107.254 2.73869C108.907 1.71083 111.323 3.27967 110.971 5.0857C110.909 6.37157 109.585 7.06236 108.39 7.33284C107.748 7.07068 107.013 6.91671 106.545 6.39237C105.435 5.35619 105.823 3.35041 107.254 2.73869ZM30.6299 2.91763C32.3818 2.92179 34.1337 2.92595 35.89 2.90514C39.1887 10.2583 42.3626 17.6614 45.5945 25.0395C48.9155 17.6988 52.0314 10.2791 55.3078 2.92179C57.0642 2.91763 58.816 2.91763 60.5679 2.92595C60.5902 12.0893 60.5724 21.2568 60.5768 30.4202C59.1949 30.416 57.813 30.4118 56.4267 30.4493C56.342 23.7495 56.4936 17.0497 56.3509 10.3498C56.0433 10.87 55.758 11.3985 55.504 11.9436C52.8115 18.1066 50.07 24.253 47.3642 30.4118C46.1784 30.4243 44.9882 30.4285 43.8025 30.3619C40.9673 23.6038 37.8559 16.9456 34.9851 10.2042C34.8023 16.929 34.9494 23.6621 34.9093 30.391C33.4784 30.4243 32.0519 30.4202 30.621 30.4243C30.621 21.2526 30.6076 12.0851 30.6299 2.91763Z" fill="#1F1F23"/>
<path d="M7.28984 8.02175C9.61259 7.63104 11.6495 8.96455 13.8561 9.32553C15.9421 8.90509 17.8807 7.7542 20.0783 7.93257C22.5262 7.88161 24.7953 9.08346 26.3408 10.8289C23.9913 12.2771 22.2894 14.8464 22.7986 17.5814C22.9639 20.104 24.9963 21.9938 27.2029 23.1447C26.0147 25.9901 24.3843 28.9162 21.6641 30.6871C18.9304 32.3349 16.1967 29.3536 13.3513 30.0373C11.9353 30.2964 10.6176 30.8824 9.22397 31.2264H8.09834C7.17371 30.8824 6.28928 30.4026 5.59245 29.7188C2.48355 26.6399 0.500283 22.5629 0 18.3246V16.0483C0.245675 12.2516 3.18931 8.53562 7.28984 8.02175ZM89.9527 11.4489C93.1286 9.58034 97.3944 9.49965 100.695 11.1389C102.741 12.1667 103.979 14.2519 104.108 16.422C102.75 16.4305 101.397 16.4305 100.043 16.422C99.6815 15.6576 99.4626 14.7742 98.7747 14.1966C97.5553 13.1604 95.7819 13.0373 94.2453 13.3176C92.9455 13.5936 91.4983 14.5576 91.6591 15.9803C91.5295 17.0972 92.5792 17.8447 93.5574 18.1844C95.9963 19.021 98.6452 19.1782 101.044 20.1337C102.353 20.6476 103.635 21.4757 104.162 22.7795C105.269 25.0728 104.305 27.9521 102.214 29.4258C100.776 30.4663 99.007 30.9929 97.2426 31.2264H94.0086C91.9717 30.874 89.8634 30.1945 88.4519 28.6826C87.3664 27.6379 86.9778 26.1855 86.6741 24.7967C88.1303 24.784 89.5865 24.8137 91.0426 24.9284C91.5385 26.1515 92.3201 27.4595 93.7763 27.778C95.6569 28.1602 98.0153 28.2537 99.4894 26.8734C100.57 25.8712 100.307 23.9898 98.9266 23.3571C95.6792 21.9089 91.5563 22.2826 88.8226 19.7982C86.2542 17.5007 87.0448 13.1562 89.9527 11.4489ZM119.009 11.398C122.181 9.59308 126.339 9.49965 129.618 11.105C132.088 12.3195 133.701 14.7912 134 17.3945C132.611 17.4157 131.226 17.4242 129.837 17.437C129.346 16.3965 128.966 15.2116 127.952 14.5067C126.531 13.445 124.548 13.3345 122.855 13.7635C120.711 14.4175 119.487 16.5027 119.117 18.5029C118.79 20.9661 118.835 23.718 120.483 25.782C122.154 27.9649 125.714 28.3131 127.952 26.7503C128.957 26.0665 129.35 24.9029 129.832 23.8752C131.222 23.8837 132.611 23.8794 134 23.8964C133.728 27.9309 129.868 30.9334 125.781 31.2264H123.44C121.051 30.9377 118.661 30.0034 117.062 28.2409C115.047 26.0411 114.31 23.0343 114.458 20.1719C114.4 16.8042 115.923 13.2241 119.009 11.398ZM65.5103 10.332C66.9799 10.332 68.4495 10.332 69.9191 10.3235C70.0531 14.8931 69.7717 19.4755 70.062 24.0366C70.2451 27.5699 75.2346 28.6146 77.7807 26.6144C79.143 25.5951 79.755 23.9049 79.7103 22.2954C79.7282 18.3076 79.6835 14.3156 79.7282 10.3278C81.2067 10.332 82.6852 10.332 84.1637 10.3278C84.1727 17.1822 84.1905 24.0323 84.1637 30.8824C82.721 30.8909 81.2826 30.8527 79.8488 30.7126C79.8488 29.6042 79.8443 28.4957 79.8488 27.3873C78.7366 29.5277 76.5389 31.0523 74.0017 31.2264H72.0899C70.1469 30.9631 68.1859 30.1477 67.0246 28.5934C65.7962 27.0476 65.479 25.0515 65.5014 23.1617C65.5103 18.8851 65.5014 14.6086 65.5103 10.332ZM107.297 10.3278C108.704 10.3363 110.111 10.3405 111.514 10.2981C111.635 10.8969 111.737 11.4999 111.751 12.1115C111.724 18.3203 111.755 24.5249 111.733 30.7338C110.25 30.7593 108.767 30.755 107.284 30.755C107.288 23.9474 107.262 17.1397 107.297 10.3278Z" fill="#1F1F23"/>
</svg>
