<svg width="156" height="50" viewBox="0 0 156 50" fill="none" xmlns="http://www.w3.org/2000/svg">
<path d="M155.25 0.75H0.75V49.25H155.25V0.75Z" stroke="#1F1F23" stroke-width="1.5"/>
<path d="M51.0742 22H52.0722L48.3639 14.4588H47.1165L43.4082 22H44.4062L45.6423 19.4938H49.8381L51.0742 22ZM47.6722 15.3773H47.8082L49.3845 18.5866H46.0845L47.6722 15.3773ZM57.9663 16.3299L55.5282 21.0928H55.4488L52.988 16.3299H52.0354L55.0065 22H55.9704L58.9416 16.3299H57.9663ZM59.82 19.199C59.82 21.0588 61.1127 22.1928 62.689 22.1928C63.5849 22.1928 64.356 21.8299 64.821 21.1381L64.8664 22H65.7509V16.3299H64.8664C64.855 16.6361 64.8323 16.9423 64.8097 17.2485C64.3334 16.568 63.5395 16.1825 62.587 16.1825C61.0447 16.1825 59.82 17.2371 59.82 19.199ZM60.7725 19.2557C60.7725 17.9175 61.589 17.067 62.8478 17.067C63.8571 17.067 64.5715 17.6227 64.7983 18.4505C64.8437 18.9608 64.8437 19.4371 64.7983 19.9021C64.5602 20.7639 63.8571 21.3309 62.8478 21.3309C61.6004 21.3309 60.7725 20.5144 60.7725 19.2557ZM68.7773 15.2526C69.1742 15.2526 69.469 14.9918 69.469 14.5495C69.469 14.1526 69.1742 13.8577 68.7659 13.8577C68.3577 13.8577 68.0742 14.1299 68.0742 14.5722C68.0742 14.9691 68.3577 15.2526 68.7773 15.2526ZM68.301 22H69.2309V16.3299H68.301V22ZM71.6561 14.4588V19.6412C71.6561 21.1608 72.1778 22.0567 73.6066 22.0567C73.754 22.0567 73.9582 22.0454 74.0829 22.034V21.1268H73.9015C72.8922 21.1268 72.586 20.7299 72.586 19.6072V14.4588H71.6561ZM75.278 19.199C75.278 21.0588 76.5708 22.1928 78.147 22.1928C79.0429 22.1928 79.8141 21.8299 80.279 21.1381L80.3244 22H81.2089V16.3299H80.3244C80.313 16.6361 80.2903 16.9423 80.2677 17.2485C79.7914 16.568 78.9976 16.1825 78.045 16.1825C76.5027 16.1825 75.278 17.2371 75.278 19.199ZM76.2305 19.2557C76.2305 17.9175 77.047 17.067 78.3058 17.067C79.3151 17.067 80.0295 17.6227 80.2563 18.4505C80.3017 18.9608 80.3017 19.4371 80.2563 19.9021C80.0182 20.7639 79.3151 21.3309 78.3058 21.3309C77.0584 21.3309 76.2305 20.5144 76.2305 19.2557ZM89.6786 19.1649C89.6786 17.2371 88.4425 16.1825 86.8889 16.1825C85.959 16.1825 85.1765 16.5567 84.6889 17.2258V14.4588H83.759V22H84.6322L84.6889 21.1495C85.1538 21.8299 85.9136 22.1928 86.8208 22.1928C88.3858 22.1928 89.6786 21.0701 89.6786 19.1649ZM88.726 19.2216C88.726 20.5258 87.8982 21.3309 86.6621 21.3309C85.6528 21.3309 84.9724 20.7639 84.7229 19.9361C84.6775 19.3918 84.6775 18.9155 84.7229 18.4392C84.961 17.6113 85.6301 17.067 86.6281 17.067C87.8982 17.067 88.726 17.9289 88.726 19.2216ZM91.5936 14.4588V19.6412C91.5936 21.1608 92.1153 22.0567 93.5441 22.0567C93.6915 22.0567 93.8957 22.0454 94.0204 22.034V21.1268H93.839C92.8297 21.1268 92.5235 20.7299 92.5235 19.6072V14.4588H91.5936ZM98.2433 21.3876C97.0866 21.3876 96.2701 20.6278 96.1454 19.4938C97.0412 19.4938 100.421 19.5165 101.101 19.5165L101.214 18.8928C101.158 17.2598 99.9103 16.1598 98.2206 16.1598C96.4062 16.1598 95.2155 17.3505 95.2155 19.2216C95.2155 21.0361 96.4289 22.2268 98.2546 22.2268C99.4113 22.2268 100.523 21.7392 100.976 20.6505L100.262 20.3103C99.8763 21.1041 99.0031 21.3876 98.2433 21.3876ZM98.2206 17.0103C99.4227 17.0103 100.33 17.668 100.33 18.7907H96.168C96.3041 17.7021 97.0979 17.0103 98.2206 17.0103ZM109.351 22.2268C111.165 22.2268 112.367 21.0474 112.367 19.1649C112.367 17.3619 111.142 16.1598 109.317 16.1598C107.514 16.1598 106.323 17.3505 106.323 19.2216C106.323 21.0361 107.536 22.2268 109.351 22.2268ZM111.415 19.2216C111.415 20.5258 110.587 21.3309 109.351 21.3309C108.092 21.3309 107.264 20.4691 107.264 19.1649C107.264 17.8722 108.081 17.067 109.317 17.067C110.587 17.067 111.415 17.9289 111.415 19.2216ZM115.336 17.5433V16.3299H114.406V22H115.336V18.7227C115.858 17.5433 116.822 17.0897 117.706 17.0897C118.512 17.0897 119.249 17.6227 119.249 18.5186V22H120.19V18.3938C120.19 17.067 119.215 16.2052 117.979 16.2052C117.037 16.2052 116.051 16.5113 115.336 17.5433ZM126.314 16.3299H125.52V17.2485H126.314V19.6412C126.314 21.1608 126.835 22.0567 128.264 22.0567C128.412 22.0567 128.616 22.0454 128.74 22.034V21.1268H128.559C127.55 21.1268 127.243 20.7299 127.243 19.6072V17.2485H128.4V16.3299H127.243V14.4588H126.314V16.3299ZM131.46 17.5433V14.4588H130.53V22H131.46V18.7227C131.982 17.5546 132.923 17.101 133.819 17.101C134.624 17.101 135.373 17.6454 135.373 18.5412V22H136.314V18.3938C136.314 17.067 135.339 16.2052 134.103 16.2052C133.161 16.2052 132.175 16.5227 131.46 17.5433ZM141.223 21.3876C140.066 21.3876 139.25 20.6278 139.125 19.4938C140.021 19.4938 143.4 19.5165 144.081 19.5165L144.194 18.8928C144.137 17.2598 142.89 16.1598 141.2 16.1598C139.386 16.1598 138.195 17.3505 138.195 19.2216C138.195 21.0361 139.408 22.2268 141.234 22.2268C142.391 22.2268 143.502 21.7392 143.956 20.6505L143.241 20.3103C142.856 21.1041 141.983 21.3876 141.223 21.3876ZM141.2 17.0103C142.402 17.0103 143.309 17.668 143.309 18.7907H139.148C139.284 17.7021 140.077 17.0103 141.2 17.0103ZM51.0323 37H52.476L48.7521 29.3802H47.0906L43.3667 37H44.8104C45.2 36.2094 45.5552 35.476 45.8646 34.8229H49.9781L51.0323 37ZM47.8125 30.7896H48.0302L49.3708 33.5625H46.4719L47.8125 30.7896ZM53.9248 39.4177H55.2196V36.3125C55.6665 36.8854 56.3425 37.1719 57.1102 37.1719C58.5654 37.1719 59.9061 36.0719 59.9061 34.1354C59.9061 32.1302 58.6456 31.1448 57.2363 31.1448C56.4227 31.1448 55.7008 31.4312 55.2196 31.9927C55.1852 31.7521 55.1623 31.5115 55.1394 31.2708H53.9248V39.4177ZM58.5883 34.2271C58.5883 35.3156 57.8894 35.9802 56.8581 35.9802C55.7352 35.9802 55.2196 35.1552 55.2196 34.1354C55.2196 33.1271 55.7123 32.3594 56.8352 32.3594C57.8894 32.3594 58.5883 33.1042 58.5883 34.2271ZM61.7021 39.4177H62.9969V36.3125C63.4438 36.8854 64.1199 37.1719 64.8876 37.1719C66.3428 37.1719 67.6834 36.0719 67.6834 34.1354C67.6834 32.1302 66.423 31.1448 65.0136 31.1448C64.2001 31.1448 63.4782 31.4312 62.9969 31.9927C62.9626 31.7521 62.9396 31.5115 62.9167 31.2708H61.7021V39.4177ZM66.3657 34.2271C66.3657 35.3156 65.6667 35.9802 64.6355 35.9802C63.5126 35.9802 62.9969 35.1552 62.9969 34.1354C62.9969 33.1271 63.4896 32.3594 64.6126 32.3594C65.6667 32.3594 66.3657 33.1042 66.3657 34.2271ZM74.4639 31.4771C74.4639 30.7323 75.667 30.3083 76.7326 30.3083C77.867 30.3083 79.1045 30.675 79.4253 31.8208L80.5024 31.3969C80.2503 29.6781 78.4514 29.1167 76.7441 29.1167C75.0597 29.1167 72.9514 29.8156 72.9514 31.6031C72.9514 34.9031 79.2535 32.7375 79.2535 34.6969C79.2535 35.751 77.6264 35.9344 76.7326 35.9344C75.7357 35.9344 74.5326 35.7625 74.0514 34.4906L72.9055 35.0406C73.341 37.1031 75.5868 37.2865 76.8701 37.2865C78.5545 37.2865 80.6743 36.6792 80.6743 34.5937C80.6743 31.3625 74.4639 33.2875 74.4639 31.4771ZM82.8184 31.2708H82.0163V32.5427H82.8184V34.6167C82.8184 36.2208 83.3913 37.0688 84.7778 37.0688C84.984 37.0688 85.3278 37.0458 85.5226 37.0229V35.751C85.4538 35.7625 85.1788 35.774 85.0872 35.774C84.3424 35.774 84.1132 35.476 84.1132 34.5708V32.5427H85.1559V31.2708H84.1132V29.3802H82.8184V31.2708ZM89.8123 37.2292C91.6342 37.2292 92.8488 36.0375 92.8488 34.1354C92.8488 32.3135 91.6113 31.099 89.7779 31.099C87.9561 31.099 86.7529 32.3021 86.7529 34.1927C86.7529 36.026 87.979 37.2292 89.8123 37.2292ZM91.5311 34.2271C91.5311 35.3156 90.8321 35.9802 89.8008 35.9802C88.7467 35.9802 88.0706 35.2354 88.0706 34.1125C88.0706 33.024 88.7467 32.3594 89.7779 32.3594C90.8436 32.3594 91.5311 33.1042 91.5311 34.2271ZM98.5156 32.451V31.1333C97.7135 31.1333 96.5448 31.649 95.949 32.451C95.9375 32.2219 95.8688 31.5 95.8573 31.2708H94.7344V37H96.0292V34.0781C96.0292 33.024 97.576 32.451 98.5156 32.451ZM102.638 36.0604C101.721 36.0604 101.045 35.4531 100.885 34.5479L105.491 34.5594C105.514 34.4562 105.605 34.1812 105.628 33.8604C105.594 32.2333 104.299 31.099 102.615 31.099C100.793 31.099 99.5898 32.3021 99.5898 34.1927C99.5898 36.026 100.816 37.2292 102.649 37.2292C103.738 37.2292 104.895 36.7937 105.376 35.7167C105.055 35.5448 104.746 35.3615 104.425 35.1781C104.059 35.9115 103.199 36.0604 102.638 36.0604ZM102.615 32.2792C103.646 32.2792 104.311 32.7604 104.391 33.6083H100.919C101.102 32.7948 101.755 32.2792 102.615 32.2792Z" fill="#1F1F23"/>
<path d="M30.8682 24.7504C30.901 28.3824 33.966 29.591 34 29.6065C33.9741 29.6917 33.5103 31.3289 32.3852 33.0199C31.4126 34.482 30.4032 35.9386 28.8131 35.9688C27.2507 35.9984 26.7483 35.0158 24.962 35.0158C23.1762 35.0158 22.618 35.9386 21.139 35.9984C19.6042 36.0582 18.4354 34.4174 17.4547 32.9608C15.4509 29.9811 13.9196 24.5409 15.9758 20.8687C16.9972 19.0451 18.8227 17.8903 20.8041 17.8607C22.3113 17.8311 23.7339 18.9036 24.6552 18.9036C25.576 18.9036 27.3048 17.6139 29.1222 17.8033C29.883 17.8358 32.0186 18.1194 33.39 20.1839C33.2795 20.2544 30.8417 21.714 30.8682 24.7504ZM27.9318 15.832C28.7467 14.8175 29.2951 13.4052 29.1455 12C27.9709 12.0486 26.5506 12.805 25.7081 13.819C24.9531 14.7168 24.2919 16.154 24.4703 17.5314C25.7795 17.6355 27.1169 16.8471 27.9318 15.832Z" fill="#1F1F23"/>
</svg>
