<svg width="88" height="88" viewBox="0 0 88 88" fill="none" xmlns="http://www.w3.org/2000/svg">
<circle cx="2.75" cy="2.75" r="2.75" fill="#A9FACA" fill-opacity="0.9"/>
<circle cx="19.25" cy="2.75" r="2.75" fill="#A9FACA" fill-opacity="0.9"/>
<circle cx="35.75" cy="2.75" r="2.75" fill="#A9FACA" fill-opacity="0.9"/>
<circle cx="52.25" cy="2.75" r="2.75" fill="#A9FACA" fill-opacity="0.9"/>
<circle cx="68.75" cy="2.75" r="2.75" fill="#A9FACA" fill-opacity="0.9"/>
<circle cx="85.25" cy="2.75" r="2.75" fill="#A9FACA" fill-opacity="0.9"/>
<circle cx="2.75" cy="19.25" r="2.75" fill="#A9FACA" fill-opacity="0.9"/>
<circle cx="19.25" cy="19.25" r="2.75" fill="#A9FACA" fill-opacity="0.9"/>
<circle cx="35.75" cy="19.25" r="2.75" fill="#A9FACA" fill-opacity="0.9"/>
<circle cx="52.25" cy="19.25" r="2.75" fill="#A9FACA" fill-opacity="0.9"/>
<circle cx="68.75" cy="19.25" r="2.75" fill="#A9FACA" fill-opacity="0.9"/>
<circle cx="85.25" cy="19.25" r="2.75" fill="#A9FACA" fill-opacity="0.9"/>
<circle cx="2.75" cy="35.75" r="2.75" fill="#A9FACA" fill-opacity="0.9"/>
<circle cx="19.25" cy="35.75" r="2.75" fill="#A9FACA" fill-opacity="0.9"/>
<circle cx="35.75" cy="35.75" r="2.75" fill="#A9FACA" fill-opacity="0.9"/>
<circle cx="52.25" cy="35.75" r="2.75" fill="#A9FACA" fill-opacity="0.9"/>
<circle cx="68.75" cy="35.75" r="2.75" fill="#A9FACA" fill-opacity="0.9"/>
<circle cx="85.25" cy="35.75" r="2.75" fill="#A9FACA" fill-opacity="0.9"/>
<circle cx="2.75" cy="52.25" r="2.75" fill="#A9FACA" fill-opacity="0.9"/>
<circle cx="19.25" cy="52.25" r="2.75" fill="#A9FACA" fill-opacity="0.9"/>
<circle cx="35.75" cy="52.25" r="2.75" fill="#A9FACA" fill-opacity="0.9"/>
<circle cx="52.25" cy="52.25" r="2.75" fill="#A9FACA" fill-opacity="0.9"/>
<circle cx="68.75" cy="52.25" r="2.75" fill="#A9FACA" fill-opacity="0.9"/>
<circle cx="85.25" cy="52.25" r="2.75" fill="#A9FACA" fill-opacity="0.9"/>
<circle cx="2.75" cy="68.75" r="2.75" fill="#A9FACA" fill-opacity="0.9"/>
<circle cx="19.25" cy="68.75" r="2.75" fill="#A9FACA" fill-opacity="0.9"/>
<circle cx="35.75" cy="68.75" r="2.75" fill="#A9FACA" fill-opacity="0.9"/>
<circle cx="52.25" cy="68.75" r="2.75" fill="#A9FACA" fill-opacity="0.9"/>
<circle cx="68.75" cy="68.75" r="2.75" fill="#A9FACA" fill-opacity="0.9"/>
<circle cx="85.25" cy="68.75" r="2.75" fill="#A9FACA" fill-opacity="0.9"/>
<circle cx="2.75" cy="85.25" r="2.75" fill="#A9FACA" fill-opacity="0.9"/>
<circle cx="19.25" cy="85.25" r="2.75" fill="#A9FACA" fill-opacity="0.9"/>
<circle cx="35.75" cy="85.25" r="2.75" fill="#A9FACA" fill-opacity="0.9"/>
<circle cx="52.25" cy="85.25" r="2.75" fill="#A9FACA" fill-opacity="0.9"/>
<circle cx="68.75" cy="85.25" r="2.75" fill="#A9FACA" fill-opacity="0.9"/>
<circle cx="85.25" cy="85.25" r="2.75" fill="#A9FACA" fill-opacity="0.9"/>
</svg>
