<svg width="134" height="26" viewBox="0 0 134 26" fill="none" xmlns="http://www.w3.org/2000/svg">
<path d="M31.3694 17.5257C31.3694 22.7919 34.6792 25.9438 39.597 25.9438C42.0492 25.9438 44.1128 25.274 45.2652 23.5142V25.9438H49.7542V0.860291H45.091V11.5241C44.0324 9.76427 42.076 8.97631 39.6238 8.97631C34.8266 8.96317 31.3694 12.1807 31.3694 17.5257ZM45.2384 17.5257C45.2384 20.5331 43.148 22.4111 40.6422 22.4111C38.0426 22.4111 36.046 20.5331 36.046 17.5257C36.046 14.4658 38.056 12.5484 40.6422 12.5484C43.148 12.5484 45.2384 14.492 45.2384 17.5257ZM64.2664 19.4693C63.7304 21.413 62.377 22.3848 60.2464 22.3848C57.7674 22.3848 55.7306 20.9139 55.677 18.3137H67.4288C67.5762 17.6702 67.6432 16.9873 67.6432 16.2387C67.6432 11.5766 64.4004 8.95004 59.6166 8.95004C54.5112 8.95004 51.0004 12.509 51.0004 17.3418C51.0004 22.7263 54.873 25.9569 60.233 25.9569C64.2798 25.9569 67.0268 24.3022 68.2328 21.0059L64.2664 19.4693ZM55.677 15.2669C56.1192 13.3889 57.7138 12.2857 59.63 12.2857C61.7204 12.2857 63.1408 13.3889 63.1408 15.1224L63.114 15.2669H55.677ZM81.5658 19.4693C81.0298 21.413 79.6764 22.3848 77.5458 22.3848C75.0668 22.3848 73.03 20.9139 72.9764 18.3137H84.7282C84.8756 17.6702 84.9426 16.9873 84.9426 16.2387C84.9426 11.5766 81.6998 8.95004 76.916 8.95004C71.8106 8.95004 68.2998 12.509 68.2998 17.3418C68.2998 22.7263 72.1724 25.9569 77.5324 25.9569C81.5792 25.9569 84.3262 24.3022 85.5322 21.0059L81.5658 19.4693ZM72.9764 15.2669C73.4186 13.3889 75.0132 12.2857 76.9294 12.2857C79.0198 12.2857 80.4402 13.3889 80.4402 15.1224L80.4134 15.2669H72.9764ZM101.398 25.97V21.8332H91.6024L101.13 12.7454V8.96317H86.0548V12.903H95.2606L85.76 22.0302V25.97H101.398ZM115.026 19.4693C114.49 21.413 113.136 22.3848 111.006 22.3848C108.527 22.3848 106.49 20.9139 106.436 18.3137H118.188C118.335 17.6702 118.402 16.9873 118.402 16.2387C118.402 11.5766 115.16 8.95004 110.376 8.95004C105.27 8.95004 101.76 12.509 101.76 17.3418C101.76 22.7263 105.632 25.9569 110.992 25.9569C115.039 25.9569 117.786 24.3022 118.992 21.0059L115.026 19.4693ZM106.436 15.2669C106.878 13.3889 108.473 12.2857 110.389 12.2857C112.48 12.2857 113.9 13.3889 113.9 15.1224L113.873 15.2669H106.436Z" fill="#1F1F23"/>
<path fill-rule="evenodd" clip-rule="evenodd" d="M20.837 8.9632H26.5856V12.2595H20.837V8.9632Z" fill="#1F1F23"/>
<path fill-rule="evenodd" clip-rule="evenodd" d="M20.837 13.5334H26.5856V16.8297H20.837V13.5334Z" fill="#1F1F23"/>
<path fill-rule="evenodd" clip-rule="evenodd" d="M20.837 18.1035H26.5856V21.3998H20.837V18.1035Z" fill="#1F1F23"/>
<path fill-rule="evenodd" clip-rule="evenodd" d="M0 22.6737H5.74866V25.97H0V22.6737Z" fill="#1F1F23"/>
<path fill-rule="evenodd" clip-rule="evenodd" d="M6.94116 22.6737H12.6898V25.97H6.94116V22.6737Z" fill="#1F1F23"/>
<path fill-rule="evenodd" clip-rule="evenodd" d="M13.8958 22.6737H19.6444V25.97H13.8958V22.6737Z" fill="#1F1F23"/>
<path fill-rule="evenodd" clip-rule="evenodd" d="M20.837 22.6737H26.5856V25.97H20.837V22.6737Z" fill="#1F1F23"/>
<path fill-rule="evenodd" clip-rule="evenodd" d="M13.8958 18.1035H19.6444V21.3998H13.8958V18.1035Z" fill="#1F1F23"/>
<path fill-rule="evenodd" clip-rule="evenodd" d="M6.94116 18.1035H12.6898V21.3998H6.94116V18.1035Z" fill="#1F1F23"/>
<path fill-rule="evenodd" clip-rule="evenodd" d="M6.94116 13.5334H12.6898V16.8297H6.94116V13.5334Z" fill="#1F1F23"/>
<path d="M129.457 14.8335V15.3194H134V14.0193C134 11.1039 132.137 8.9895 129.015 8.9895C127.005 8.9895 125.585 9.94819 124.848 11.5372V8.9895H120.158V25.97H124.848V15.0305C124.848 13.297 125.799 12.3383 127.26 12.3383C128.6 12.3515 129.457 13.5859 129.457 14.8335Z" fill="#1F1F23"/>
</svg>
