<svg width="35" height="35" viewBox="0 0 35 35" fill="none" xmlns="http://www.w3.org/2000/svg">
<path d="M18.3969 30.625H7.29167C5.68084 30.625 4.375 29.3192 4.375 27.7083V7.29167C4.375 5.68084 5.68084 4.375 7.29167 4.375H27.7083C29.3192 4.375 30.625 5.68084 30.625 7.29167V27.7083C30.625 29.3192 29.3192 30.625 27.7083 30.625H22.4963V20.4677H25.9204L26.4308 16.4938H22.4977V13.9635C22.4977 12.8158 22.8185 12.0312 24.4635 12.0312H26.5562V8.50208C25.5412 8.39563 24.5204 8.34313 23.501 8.34604C20.4677 8.34604 18.3969 10.1938 18.3969 13.5844V16.501H14.9873V20.475H18.3969V30.625Z" fill="#1F1F23"/>
</svg>
