<svg width="156" height="50" viewBox="0 0 156 50" fill="none" xmlns="http://www.w3.org/2000/svg">
<path d="M155.25 0.75H0.75V49.25H155.25V0.75Z" stroke="#1F1F23" stroke-width="1.5"/>
<path d="M16.5022 16.4948L30.7578 24.7594C31.4224 25.1447 31.4224 26.1044 30.7578 26.4897L16.5022 34.7543C15.8355 35.1408 15.0006 34.6598 15.0006 33.8892V17.3599C15.0006 16.5893 15.8355 16.1083 16.5022 16.4948Z" fill="#1F1F23"/>
<path d="M44.0124 15.1278C45.2825 15.1278 46.6433 15.7629 46.9835 17.0784L47.7887 16.7608C47.4371 14.8783 45.6454 14.2093 44.0351 14.2093C41.6423 14.2093 39.9186 15.6835 39.9186 18.2124C39.9186 20.5825 41.5969 22.2495 44.0124 22.2495C45.9969 22.2495 47.9134 21.1948 47.9701 17.9402H44.0351V18.7794H46.9608C46.7567 20.3216 45.6794 21.3082 44.1258 21.3082C42.2433 21.3082 40.9165 20.1175 40.9165 18.2124C40.9165 16.2959 42.1412 15.1278 44.0124 15.1278ZM52.6603 21.3876C51.5036 21.3876 50.6871 20.6278 50.5624 19.4938C51.4582 19.4938 54.8376 19.5165 55.518 19.5165L55.6314 18.8928C55.5747 17.2598 54.3273 16.1598 52.6376 16.1598C50.8232 16.1598 49.6325 17.3505 49.6325 19.2216C49.6325 21.0361 50.8459 22.2268 52.6716 22.2268C53.8283 22.2268 54.9397 21.7392 55.3933 20.6505L54.6789 20.3103C54.2933 21.1041 53.4201 21.3876 52.6603 21.3876ZM52.6376 17.0103C53.8397 17.0103 54.7469 17.668 54.7469 18.7907H50.585C50.7211 17.7021 51.5149 17.0103 52.6376 17.0103ZM57.8282 16.3299H57.0344V17.2485H57.8282V19.6412C57.8282 21.1608 58.3499 22.0567 59.7787 22.0567C59.9262 22.0567 60.1303 22.0454 60.255 22.034V21.1268H60.0736C59.0643 21.1268 58.7581 20.7299 58.7581 19.6072V17.2485H59.9148V16.3299H58.7581V14.4588H57.8282V16.3299ZM66.1523 15.2526C66.5492 15.2526 66.844 14.9918 66.844 14.5495C66.844 14.1526 66.5492 13.8577 66.1409 13.8577C65.7327 13.8577 65.4492 14.1299 65.4492 14.5722C65.4492 14.9691 65.7327 15.2526 66.1523 15.2526ZM65.676 22H66.6059V16.3299H65.676V22ZM69.2579 16.3299H68.4641V17.2485H69.2579V19.6412C69.2579 21.1608 69.7796 22.0567 71.2084 22.0567C71.3558 22.0567 71.56 22.0454 71.6847 22.034V21.1268H71.5033C70.494 21.1268 70.1878 20.7299 70.1878 19.6072V17.2485H71.3445V16.3299H70.1878V14.4588H69.2579V16.3299ZM79.6232 22.2268C81.4376 22.2268 82.6397 21.0474 82.6397 19.1649C82.6397 17.3619 81.4149 16.1598 79.5892 16.1598C77.7861 16.1598 76.5954 17.3505 76.5954 19.2216C76.5954 21.0361 77.8088 22.2268 79.6232 22.2268ZM81.6871 19.2216C81.6871 20.5258 80.8593 21.3309 79.6232 21.3309C78.3644 21.3309 77.5366 20.4691 77.5366 19.1649C77.5366 17.8722 78.3531 17.067 79.5892 17.067C80.8593 17.067 81.6871 17.9289 81.6871 19.2216ZM85.6088 17.5433V16.3299H84.6789V22H85.6088V18.7227C86.1305 17.5433 87.0944 17.0897 87.9789 17.0897C88.7841 17.0897 89.5212 17.6227 89.5212 18.5186V22H90.4624V18.3938C90.4624 17.067 89.4872 16.2052 88.2511 16.2052C87.3098 16.2052 86.3232 16.5113 85.6088 17.5433ZM44.0188 30.4229C45.0958 30.4229 46.2875 30.8583 46.6771 32.0958L47.8344 31.6719C47.3875 29.7354 45.6344 29.1396 44.0531 29.1396C41.6469 29.1396 39.8479 30.5719 39.8479 33.15C39.8479 35.5333 41.5667 37.2521 44.0073 37.2521C46.3792 37.2521 48.1552 35.7854 48.075 32.7719H44.0531V33.9292H46.7C46.4479 35.1781 45.4854 35.9344 44.1792 35.9344C42.4833 35.9344 41.2458 34.9031 41.2458 33.15C41.2458 31.4427 42.3344 30.4229 44.0188 30.4229ZM52.6082 37.2292C54.4301 37.2292 55.6447 36.0375 55.6447 34.1354C55.6447 32.3135 54.4072 31.099 52.5738 31.099C50.752 31.099 49.5488 32.3021 49.5488 34.1927C49.5488 36.026 50.7749 37.2292 52.6082 37.2292ZM54.327 34.2271C54.327 35.3156 53.628 35.9802 52.5967 35.9802C51.5426 35.9802 50.8665 35.2354 50.8665 34.1125C50.8665 33.024 51.5426 32.3594 52.5738 32.3594C53.6395 32.3594 54.327 33.1042 54.327 34.2271ZM60.074 37.2292C61.8959 37.2292 63.1105 36.0375 63.1105 34.1354C63.1105 32.3135 61.873 31.099 60.0396 31.099C58.2178 31.099 57.0146 32.3021 57.0146 34.1927C57.0146 36.026 58.2407 37.2292 60.074 37.2292ZM61.7928 34.2271C61.7928 35.3156 61.0938 35.9802 60.0626 35.9802C59.0084 35.9802 58.3324 35.2354 58.3324 34.1125C58.3324 33.024 59.0084 32.3594 60.0396 32.3594C61.1053 32.3594 61.7928 33.1042 61.7928 34.2271ZM67.5513 39.5323C69.4648 39.5323 70.4846 38.6271 70.4846 36.599V31.2708H69.2701C69.2471 31.5115 69.2128 31.7521 69.1784 31.9927C68.6971 31.4542 67.9638 31.1333 67.1732 31.1333C65.7409 31.1333 64.5034 32.1302 64.5034 34.1583C64.5034 36.0146 65.8211 37.0688 67.2763 37.0688C68.0326 37.0688 68.7315 36.7823 69.1898 36.2094C69.1326 37.7104 68.6628 38.3521 67.5628 38.3521C66.9326 38.3521 66.2336 38.0771 65.9471 37.6073C65.6034 37.825 65.2826 38.0542 64.9503 38.2833C65.4888 39.1885 66.4971 39.5323 67.5513 39.5323ZM65.8211 34.2385C65.8211 33.1042 66.5086 32.3594 67.5628 32.3594C68.7086 32.3594 69.1898 33.1615 69.1898 34.1583C69.1898 35.2812 68.4221 35.8885 67.494 35.8885C66.5773 35.8885 65.8211 35.2927 65.8211 34.2385ZM72.7541 29.3802V34.6167C72.7541 36.2208 73.327 37.0688 74.7135 37.0688C74.9197 37.0688 75.2635 37.0458 75.4583 37.0229V35.751C75.3895 35.7625 75.1145 35.774 75.0229 35.774C74.2781 35.774 74.0489 35.476 74.0489 34.5708V29.3802H72.7541ZM79.6026 36.0604C78.6859 36.0604 78.0099 35.4531 77.8495 34.5479L82.4557 34.5594C82.4786 34.4562 82.5703 34.1812 82.5932 33.8604C82.5589 32.2333 81.2641 31.099 79.5797 31.099C77.7578 31.099 76.5547 32.3021 76.5547 34.1927C76.5547 36.026 77.7807 37.2292 79.6141 37.2292C80.7026 37.2292 81.8599 36.7937 82.3411 35.7167C82.0203 35.5448 81.7109 35.3615 81.3901 35.1781C81.0234 35.9115 80.1641 36.0604 79.6026 36.0604ZM79.5797 32.2792C80.6109 32.2792 81.2755 32.7604 81.3557 33.6083H77.8839C78.0672 32.7948 78.7203 32.2792 79.5797 32.2792ZM89.6165 34.2271L93.2144 34.2042C94.9217 34.1927 95.8956 32.7948 95.8956 31.7062C95.8956 30.3198 94.9561 29.3802 92.7904 29.3802H88.3217V37H89.6165V34.2271ZM92.8592 30.6292C93.8904 30.6292 94.3717 31.076 94.3717 31.7177C94.3717 32.4396 93.7529 32.8979 92.5842 32.8979H89.6165V30.6635C89.9717 30.6635 92.3665 30.6292 92.8592 30.6292ZM97.59 29.3802V34.6167C97.59 36.2208 98.163 37.0688 99.5494 37.0688C99.7557 37.0688 100.099 37.0458 100.294 37.0229V35.751C100.225 35.7625 99.9505 35.774 99.8588 35.774C99.114 35.774 98.8848 35.476 98.8848 34.5708V29.3802H97.59ZM101.414 34.1583C101.414 36.0604 102.754 37.1719 104.221 37.1719C104.966 37.1719 105.642 36.8854 106.1 36.3125L106.18 37H107.395V31.2708H106.18C106.157 31.5115 106.123 31.7521 106.089 31.9927C105.596 31.4427 104.874 31.1333 104.083 31.1333C102.663 31.1333 101.414 32.1302 101.414 34.1583ZM102.731 34.2385C102.731 33.1042 103.419 32.3594 104.473 32.3594C105.619 32.3594 106.1 33.15 106.1 34.1469C106.1 35.1781 105.573 35.9802 104.461 35.9802C103.43 35.9802 102.731 35.3042 102.731 34.2385ZM111.468 36.8854L110.128 39.4177H111.457L115.754 31.2708H114.447C113.668 32.749 112.901 34.2271 112.121 35.6937C111.434 34.2271 110.758 32.749 110.082 31.2708H108.73L111.468 36.8854Z" fill="#1F1F23"/>
</svg>
