<svg width="101" height="100" viewBox="0 0 101 100" fill="none" xmlns="http://www.w3.org/2000/svg">
<path d="M80.292 66.6667V51.0417C80.292 34.3581 66.7533 20.8333 50.0521 20.8333C33.3512 20.8333 19.8123 34.3581 19.8123 51.0417V66.6667" stroke="black" stroke-width="1.5" stroke-linecap="round" stroke-linejoin="round"/>
<path d="M19.8123 64.375C19.8123 58.1617 24.8544 53.125 31.074 53.125C35.2205 53.125 38.5819 56.4829 38.5819 60.625V72.7083C38.5819 76.8504 35.2205 80.2083 31.074 80.2083C24.8544 80.2083 19.8123 75.1717 19.8123 68.9583V64.375Z" stroke="black" stroke-width="1.5" stroke-linecap="round" stroke-linejoin="round"/>
<path d="M61.5224 60.625C61.5224 56.4829 64.8838 53.125 69.0302 53.125C75.2501 53.125 80.292 58.1617 80.292 64.375V68.9583C80.292 75.1717 75.2501 80.2083 69.0302 80.2083C64.8838 80.2083 61.5224 76.8504 61.5224 72.7083V60.625Z" stroke="black" stroke-width="1.5" stroke-linecap="round" stroke-linejoin="round"/>
</svg>
