<svg width="36" height="35" viewBox="0 0 36 35" fill="none" xmlns="http://www.w3.org/2000/svg">
<path d="M24.8254 12.0598C25.6932 12.0598 26.3968 11.3573 26.3968 10.4908C26.3968 9.62431 25.6932 8.92188 24.8254 8.92188C23.9575 8.92188 23.254 9.62431 23.254 10.4908C23.254 11.3573 23.9575 12.0598 24.8254 12.0598Z" fill="#1F1F23"/>
<path fill-rule="evenodd" clip-rule="evenodd" d="M17.8204 10.7383C16.0327 10.7383 14.3183 11.4473 13.0543 12.7094C11.7902 13.9715 11.0801 15.6833 11.0801 17.4682C11.0801 19.253 11.7902 20.9648 13.0543 22.2269C14.3183 23.489 16.0327 24.198 17.8204 24.198C19.608 24.198 21.3225 23.489 22.5865 22.2269C23.8506 20.9648 24.5607 19.253 24.5607 17.4682C24.5607 15.6833 23.8506 13.9715 22.5865 12.7094C21.3225 11.4473 19.608 10.7383 17.8204 10.7383ZM17.8204 21.8388C16.659 21.8388 15.5453 21.3782 14.7241 20.5583C13.9029 19.7383 13.4415 18.6263 13.4415 17.4667C13.4415 16.3072 13.9029 15.1951 14.7241 14.3752C15.5453 13.5553 16.659 13.0946 17.8204 13.0946C18.9817 13.0946 20.0955 13.5553 20.9167 14.3752C21.7379 15.1951 22.1993 16.3072 22.1993 17.4667C22.1993 18.6263 21.7379 19.7383 20.9167 20.5583C20.0955 21.3782 18.9817 21.8388 17.8204 21.8388Z" fill="#1F1F23"/>
<path fill-rule="evenodd" clip-rule="evenodd" d="M28.749 6.57568C29.4099 7.23532 29.9256 8.02546 30.2631 8.89554C30.6522 9.9278 30.8598 11.0194 30.8767 12.1222C30.9584 13.5151 30.9584 13.9662 30.9584 17.5218C30.9584 21.0774 30.9394 21.5213 30.8767 22.9214C30.8549 24.0101 30.6493 25.0842 30.266 26.103C29.9281 26.973 29.4122 27.7631 28.7514 28.4229C28.0906 29.0827 27.2992 29.5977 26.4279 29.9351C25.4078 30.3166 24.3304 30.5228 23.2414 30.545C21.8493 30.625 21.393 30.625 17.8334 30.625C14.2737 30.625 13.8291 30.6061 12.4254 30.545C11.3341 30.5091 10.257 30.2876 9.24032 29.89C8.36872 29.5532 7.57706 29.0385 6.91595 28.379C6.25483 27.7194 5.73878 26.9293 5.40077 26.0593C5.0174 25.0391 4.81187 23.965 4.79 22.8763C4.70837 21.4835 4.70837 21.0309 4.70837 17.4767C4.70837 13.9211 4.72732 13.4772 4.79 12.0771C4.81131 10.9897 5.01785 9.91377 5.40077 8.89554C5.73783 8.02523 6.25338 7.23489 6.91434 6.5752C7.5753 5.91552 8.36707 5.40107 9.23886 5.06487C10.2574 4.68151 11.3341 4.47478 12.4224 4.45359C13.8145 4.375 14.2708 4.375 17.8305 4.375C21.3901 4.375 21.8347 4.39246 23.2385 4.45359C24.3276 4.47592 25.4051 4.68261 26.425 5.06487C27.2965 5.40147 28.0881 5.91605 28.749 6.57568ZM28.0343 25.2254C28.3249 24.4383 28.4782 23.6074 28.4876 22.7686V22.7701H28.5036C28.5663 21.3787 28.5663 20.9974 28.5663 17.452C28.5663 13.9051 28.5503 13.5165 28.4876 12.1324C28.474 11.303 28.3208 10.4819 28.0343 9.7033C27.8152 9.13725 27.48 8.62317 27.0503 8.19407C26.6205 7.76497 26.1056 7.43033 25.5387 7.21162C24.7594 6.92209 23.9358 6.76897 23.1044 6.75898C21.6948 6.67893 21.3304 6.67893 17.778 6.67893C14.2256 6.67893 13.8364 6.6964 12.4501 6.75898C11.6193 6.77057 10.7965 6.92365 10.0173 7.21162C8.86715 7.65116 7.9561 8.55497 7.5115 9.7033C7.22092 10.4898 7.06758 11.3203 7.05816 12.1586C6.98091 13.5689 6.98091 13.9313 6.98091 17.4782C6.98091 21.0236 6.99548 21.4136 7.05816 22.7963C7.07174 23.6256 7.22499 24.4468 7.5115 25.2254C7.73137 25.7924 8.06802 26.3071 8.49965 26.7361C8.93129 27.165 9.44831 27.4987 10.0173 27.7156C10.7961 28.005 11.6192 28.1581 12.4501 28.1682C13.8612 28.2483 14.2241 28.2483 17.778 28.2483C21.3289 28.2483 21.7196 28.2323 23.1044 28.1682C23.9358 28.1575 24.7592 28.0044 25.5387 27.7156C26.1057 27.4974 26.6206 27.1631 27.0504 26.7342C27.4802 26.3053 27.8154 25.7914 28.0343 25.2254Z" fill="#1F1F23"/>
</svg>
