<svg width="36" height="35" viewBox="0 0 36 35" fill="none" xmlns="http://www.w3.org/2000/svg">
<path fill-rule="evenodd" clip-rule="evenodd" d="M31.2916 7.29167C31.2916 5.68084 29.9858 4.375 28.375 4.375H7.95829C6.34746 4.375 5.04163 5.68084 5.04163 7.29167V27.7083C5.04163 29.3192 6.34746 30.625 7.95829 30.625H28.375C29.9858 30.625 31.2916 29.3192 31.2916 27.7083V7.29167ZM8.93098 14.2465V26.7735H12.8276V14.2465H8.93098ZM9.28302 11.8746C9.70638 12.298 10.2806 12.5358 10.8793 12.5358C11.478 12.5358 12.0522 12.298 12.4756 11.8746C12.899 11.4513 13.1368 10.8771 13.1368 10.2783C13.1368 9.67961 12.899 9.1054 12.4756 8.68204C12.0522 8.25868 11.478 8.02083 10.8793 8.02083C10.2806 8.02083 9.70638 8.25868 9.28302 8.68204C8.85966 9.1054 8.62181 9.67961 8.62181 10.2783C8.62181 10.8771 8.85966 11.4513 9.28302 11.8746ZM23.5172 26.7735H27.4095L27.4081 19.9048C27.4081 16.5302 26.6804 13.9373 22.737 13.9373C20.8456 13.9373 19.5739 14.9756 19.0562 15.96H19.0022V14.2479H15.2689V26.775H19.1583V20.58C19.1583 18.9452 19.466 17.3615 21.4931 17.3615C23.491 17.3615 23.5172 19.2296 23.5172 20.6821V26.7735Z" fill="#1F1F23"/>
</svg>
