<svg width="177" height="49" viewBox="0 0 177 49" fill="none" xmlns="http://www.w3.org/2000/svg">
<g filter="url(#filter0_d_65_608)">
<rect x="3.0354" y="0.5" width="172.891" height="44.98" rx="14.5" stroke="#A9FACA" shape-rendering="crispEdges"/>
</g>
<path d="M18.1959 27V25.038H14.8359V24.204L18.2019 18H19.0959V24.15H19.9359V25.038H19.0959V27H18.1959ZM15.5799 24.51L15.3639 24.15H18.1959V19.608L15.5799 24.51ZM21.4486 27V25.512H22.3486V27H21.4486ZM26.5421 27.192C25.9061 27.192 25.3921 26.988 25.0001 26.58C24.6121 26.172 24.4181 25.636 24.4181 24.972V20.028C24.4181 19.36 24.6121 18.824 25.0001 18.42C25.3921 18.012 25.9061 17.808 26.5421 17.808C27.1901 17.808 27.7081 18.012 28.0961 18.42C28.4841 18.824 28.6781 19.36 28.6781 20.028V24.972C28.6781 25.636 28.4841 26.172 28.0961 26.58C27.7081 26.988 27.1901 27.192 26.5421 27.192ZM26.5481 26.292C26.9201 26.292 27.2181 26.172 27.4421 25.932C27.6661 25.688 27.7781 25.368 27.7781 24.972V20.028C27.7781 19.632 27.6661 19.314 27.4421 19.074C27.2181 18.83 26.9201 18.708 26.5481 18.708C26.1761 18.708 25.8781 18.83 25.6541 19.074C25.4301 19.314 25.3181 19.632 25.3181 20.028V24.972C25.3181 25.368 25.4301 25.688 25.6541 25.932C25.8781 26.172 26.1761 26.292 26.5481 26.292ZM27.2921 18.708H27.8801L25.8041 26.292H25.2161L27.2921 18.708ZM33.182 27V18H35.402C35.994 18 36.466 18.186 36.818 18.558C37.174 18.93 37.352 19.424 37.352 20.04V21.252C37.352 21.668 37.266 22.034 37.094 22.35C36.926 22.666 36.686 22.906 36.374 23.07L36.332 22.806C36.652 22.93 36.902 23.126 37.082 23.394C37.262 23.662 37.352 23.978 37.352 24.342V27H36.452V24.342C36.452 24.03 36.356 23.778 36.164 23.586C35.976 23.39 35.722 23.292 35.402 23.292H34.082V27H33.182ZM34.082 22.392H35.402C35.722 22.392 35.976 22.288 36.164 22.08C36.356 21.872 36.452 21.596 36.452 21.252V20.04C36.452 19.696 36.356 19.42 36.164 19.212C35.976 19.004 35.722 18.9 35.402 18.9H34.082V22.392ZM40.6066 27.144C40.0066 27.144 39.5426 26.978 39.2146 26.646C38.8866 26.314 38.7226 25.894 38.7226 25.386C38.7226 25.07 38.7806 24.808 38.8966 24.6C39.0126 24.388 39.1606 24.216 39.3406 24.084C39.5246 23.952 39.7186 23.846 39.9226 23.766C40.1666 23.666 40.4146 23.588 40.6666 23.532C40.9226 23.472 41.1586 23.41 41.3746 23.346C41.5906 23.278 41.7646 23.186 41.8966 23.07C42.0286 22.954 42.0946 22.79 42.0946 22.578V22.422C42.0946 22.058 41.9846 21.766 41.7646 21.546C41.5486 21.322 41.2606 21.21 40.9006 21.21C40.5366 21.21 40.2486 21.322 40.0366 21.546C39.8286 21.766 39.7246 22.058 39.7246 22.422V22.602H38.8546V22.452C38.8546 21.82 39.0426 21.31 39.4186 20.922C39.7946 20.534 40.2886 20.34 40.9006 20.34C41.3046 20.34 41.6606 20.43 41.9686 20.61C42.2806 20.786 42.5246 21.032 42.7006 21.348C42.8766 21.664 42.9646 22.032 42.9646 22.452V27H42.0946V26.1L42.2386 26.292C42.0866 26.564 41.8726 26.774 41.5966 26.922C41.3206 27.07 40.9906 27.144 40.6066 27.144ZM40.7866 26.316C41.1946 26.316 41.5146 26.202 41.7466 25.974C41.9786 25.742 42.0946 25.412 42.0946 24.984V23.832C41.8506 23.984 41.5786 24.088 41.2786 24.144C40.9786 24.196 40.6926 24.268 40.4206 24.36C40.1806 24.44 39.9826 24.554 39.8266 24.702C39.6706 24.846 39.5926 25.052 39.5926 25.32C39.5926 25.612 39.6966 25.852 39.9046 26.04C40.1126 26.224 40.4066 26.316 40.7866 26.316ZM44.5678 27V20.49H45.4378V21.36L45.2878 21.186C45.4398 20.914 45.6418 20.706 45.8938 20.562C46.1458 20.414 46.4398 20.34 46.7758 20.34C47.3198 20.34 47.7578 20.528 48.0898 20.904C48.4218 21.28 48.5878 21.786 48.5878 22.422V27H47.7178V22.422C47.7178 22.058 47.6138 21.766 47.4058 21.546C47.2018 21.322 46.9298 21.21 46.5898 21.21C46.2418 21.21 45.9618 21.322 45.7498 21.546C45.5418 21.766 45.4378 22.058 45.4378 22.422V27H44.5678ZM53.5043 27L51.7103 23.508L50.9723 24.456V23.13L53.1263 20.478H54.0563L52.2803 22.758L54.4343 27H53.5043ZM50.2163 27V18H51.0863V27H50.2163ZM55.3374 27V20.49H56.2074V27H55.3374ZM55.3374 19.764V18.36H56.2074V19.764H55.3374ZM57.9155 27V20.49H58.7855V21.36L58.6355 21.186C58.7875 20.914 58.9895 20.706 59.2415 20.562C59.4935 20.414 59.7875 20.34 60.1235 20.34C60.6675 20.34 61.1055 20.528 61.4375 20.904C61.7695 21.28 61.9355 21.786 61.9355 22.422V27H61.0655V22.422C61.0655 22.058 60.9615 21.766 60.7535 21.546C60.5495 21.322 60.2775 21.21 59.9375 21.21C59.5895 21.21 59.3095 21.322 59.0975 21.546C58.8895 21.766 58.7855 22.058 58.7855 22.422V27H57.9155ZM65.3099 29.196C64.7019 29.196 64.2079 29 63.8279 28.608C63.4519 28.22 63.2639 27.708 63.2639 27.072V26.916H64.1339V27.102C64.1339 27.466 64.2379 27.76 64.4459 27.984C64.6579 28.212 64.9459 28.326 65.3099 28.326C65.6739 28.326 65.9639 28.212 66.1799 27.984C66.3959 27.76 66.5039 27.466 66.5039 27.102V25.314L66.6539 25.506C66.5059 25.758 66.3079 25.954 66.0599 26.094C65.8159 26.234 65.5239 26.304 65.1839 26.304C64.8279 26.304 64.5059 26.226 64.2179 26.07C63.9299 25.91 63.7019 25.674 63.5339 25.362C63.3659 25.05 63.2819 24.668 63.2819 24.216V22.422C63.2819 21.974 63.3659 21.596 63.5339 21.288C63.7019 20.976 63.9299 20.74 64.2179 20.58C64.5059 20.42 64.8279 20.34 65.1839 20.34C65.5239 20.34 65.8159 20.412 66.0599 20.556C66.3079 20.696 66.5059 20.89 66.6539 21.138L66.5039 21.336V20.49H67.3739V27.078C67.3739 27.502 67.2859 27.872 67.1099 28.188C66.9339 28.508 66.6919 28.756 66.3839 28.932C66.0759 29.108 65.7179 29.196 65.3099 29.196ZM65.3399 25.434C65.7079 25.434 65.9939 25.324 66.1979 25.104C66.4019 24.88 66.5039 24.586 66.5039 24.222V22.422C66.5039 22.058 66.4019 21.766 66.1979 21.546C65.9939 21.322 65.7079 21.21 65.3399 21.21C64.9679 21.21 64.6759 21.322 64.4639 21.546C64.2559 21.766 64.1519 22.058 64.1519 22.422V24.216C64.1519 24.58 64.2559 24.874 64.4639 25.098C64.6759 25.322 64.9679 25.434 65.3399 25.434ZM70.8234 27.144C70.2034 27.144 69.7054 26.966 69.3294 26.61C68.9574 26.25 68.7714 25.776 68.7714 25.188V24.978H69.6414V25.224C69.6414 25.54 69.7474 25.794 69.9594 25.986C70.1754 26.178 70.4594 26.274 70.8114 26.274C71.1514 26.274 71.4214 26.178 71.6214 25.986C71.8214 25.794 71.9214 25.516 71.9214 25.152C71.9214 24.916 71.8754 24.736 71.7834 24.612C71.6954 24.484 71.5674 24.388 71.3994 24.324C71.2314 24.26 71.0274 24.204 70.7874 24.156C70.3914 24.072 70.0414 23.98 69.7374 23.88C69.4334 23.776 69.1954 23.612 69.0234 23.388C68.8554 23.164 68.7714 22.83 68.7714 22.386C68.7714 21.722 68.9534 21.216 69.3174 20.868C69.6854 20.516 70.1674 20.34 70.7634 20.34C71.3834 20.34 71.8754 20.52 72.2394 20.88C72.6074 21.236 72.7914 21.706 72.7914 22.29V22.494H71.9214V22.26C71.9214 21.94 71.8174 21.686 71.6094 21.498C71.4054 21.306 71.1274 21.21 70.7754 21.21C70.4314 21.21 70.1554 21.308 69.9474 21.504C69.7434 21.696 69.6414 21.974 69.6414 22.338C69.6414 22.574 69.6854 22.756 69.7734 22.884C69.8654 23.008 69.9974 23.1 70.1694 23.16C70.3414 23.22 70.5474 23.276 70.7874 23.328C71.1794 23.408 71.5254 23.5 71.8254 23.604C72.1254 23.708 72.3614 23.874 72.5334 24.102C72.7054 24.33 72.7914 24.668 72.7914 25.116C72.7914 25.768 72.6114 26.27 72.2514 26.622C71.8954 26.97 71.4194 27.144 70.8234 27.144Z" fill="#E9EDEB"/>
<path d="M98.1753 15.9955L99.5267 20.6075L103.9 20.6075L100.362 23.4578L101.713 28.0698L98.1753 25.2194L94.6373 28.0698L95.9887 23.4578L92.4506 20.6075L96.8239 20.6075L98.1753 15.9955Z" fill="#E9EDEB"/>
<path d="M112.889 15.9955L114.241 20.6075L118.614 20.6075L115.076 23.4578L116.427 28.0698L112.889 25.2194L109.351 28.0698L110.703 23.4578L107.165 20.6075L111.538 20.6075L112.889 15.9955Z" fill="#E9EDEB"/>
<path d="M127.603 15.9955L128.955 20.6075L133.328 20.6075L129.79 23.4578L131.141 28.0698L127.603 25.2194L124.065 28.0698L125.417 23.4578L121.878 20.6075L126.252 20.6075L127.603 15.9955Z" fill="#E9EDEB"/>
<path d="M142.317 15.9955L143.668 20.6075L148.042 20.6075L144.504 23.4578L145.855 28.0698L142.317 25.2194L138.779 28.0698L140.13 23.4578L136.592 20.6075L140.965 20.6075L142.317 15.9955Z" fill="#E9EDEB"/>
<path d="M157.031 15.9955L158.382 20.6075L162.755 20.6075L159.217 23.4578L160.569 28.0698L157.031 25.2194L153.493 28.0698L154.844 23.4578L151.306 20.6075L155.679 20.6075L157.031 15.9955Z" fill="#E9EDEB" fill-opacity="0.5"/>
<defs>
<filter id="filter0_d_65_608" x="0.5354" y="0" width="175.891" height="48.98" filterUnits="userSpaceOnUse" color-interpolation-filters="sRGB">
<feFlood flood-opacity="0" result="BackgroundImageFix"/>
<feColorMatrix in="SourceAlpha" type="matrix" values="0 0 0 0 0 0 0 0 0 0 0 0 0 0 0 0 0 0 127 0" result="hardAlpha"/>
<feOffset dx="-2" dy="3"/>
<feComposite in2="hardAlpha" operator="out"/>
<feColorMatrix type="matrix" values="0 0 0 0 0.913725 0 0 0 0 0.929412 0 0 0 0 0.921569 0 0 0 1 0"/>
<feBlend mode="normal" in2="BackgroundImageFix" result="effect1_dropShadow_65_608"/>
<feBlend mode="normal" in="SourceGraphic" in2="effect1_dropShadow_65_608" result="shape"/>
</filter>
</defs>
</svg>
