<svg width="134" height="40" viewBox="0 0 134 40" fill="none" xmlns="http://www.w3.org/2000/svg">
<path d="M31.982 17.325C25.5045 13.5838 14.82 13.2399 8.63642 15.0651C7.64316 15.3581 6.59321 14.813 6.29248 13.8473C5.99157 12.881 6.55146 11.8604 7.54508 11.5669C14.6436 9.47152 26.4434 9.87617 33.9005 14.181C34.7939 14.6968 35.0865 15.8185 34.5572 16.6856C34.0274 17.5542 32.8728 17.8407 31.9818 17.325H31.982ZM31.7698 22.8658C31.3154 23.5831 30.3511 23.808 29.6147 23.3676C24.2147 20.1395 15.9797 19.2042 9.5908 21.0902C8.7624 21.3335 7.8872 20.8795 7.6356 20.0751C7.51566 19.6884 7.55828 19.2712 7.75412 18.9151C7.94996 18.5589 8.28304 18.2928 8.68033 18.175C15.9787 16.021 25.0519 17.0642 31.2544 20.7711C31.9908 21.2122 32.2226 22.1503 31.7698 22.8658ZM29.3109 28.1872C29.2253 28.3239 29.1128 28.4429 28.9799 28.5373C28.847 28.6317 28.6962 28.6996 28.5363 28.7373C28.3763 28.7749 28.2103 28.7815 28.0477 28.7567C27.8851 28.7319 27.7291 28.6761 27.5887 28.5926C22.8699 25.7878 16.9304 25.1544 9.93544 26.7083C9.77517 26.7439 9.60924 26.7485 9.44714 26.7218C9.28504 26.695 9.12995 26.6375 8.99072 26.5525C8.85148 26.4674 8.73084 26.3565 8.63568 26.2262C8.54052 26.0958 8.4727 25.9484 8.43611 25.7925C8.39926 25.6366 8.3944 25.4752 8.42181 25.3174C8.44921 25.1596 8.50835 25.0087 8.59584 24.8732C8.68332 24.7377 8.79743 24.6203 8.93162 24.5278C9.06582 24.4353 9.21747 24.3694 9.3779 24.3339C17.0326 22.6323 23.5986 23.3646 28.8953 26.5122C29.0357 26.5956 29.1579 26.7051 29.2548 26.8345C29.3516 26.9638 29.4214 27.1104 29.46 27.266C29.4986 27.4215 29.5053 27.5829 29.4798 27.741C29.4542 27.8991 29.3969 28.0507 29.3111 28.1872H29.3109ZM20.0948 0C8.99708 0 0 8.74938 0 19.5423C0 30.3363 8.99708 39.0853 20.095 39.0853C31.1934 39.0853 40.1903 30.3363 40.1903 19.5423C40.1903 8.74955 31.1935 0 20.095 0H20.0948ZM54.6718 18.0413C51.2021 17.2366 50.5846 16.6718 50.5846 15.4851C50.5846 14.3641 51.6699 13.6099 53.2838 13.6099C54.8483 13.6099 56.3995 14.1828 58.0261 15.3623C58.0754 15.398 58.1369 15.4121 58.1977 15.4029C58.2277 15.3985 58.2565 15.3883 58.2822 15.3728C58.308 15.3573 58.3303 15.3369 58.3477 15.3127L60.0417 12.9902C60.1114 12.8946 60.0925 12.7626 59.9985 12.6897C58.0628 11.1792 55.883 10.4448 53.3351 10.4448C49.5889 10.4448 46.9721 12.6308 46.9721 15.7594C46.9721 19.114 49.2295 20.3016 53.1301 21.2187C56.4502 21.9625 57.0107 22.5853 57.0107 23.6993C57.0107 24.9335 55.8777 25.7008 54.0543 25.7008C52.0291 25.7008 50.3771 25.0375 48.5292 23.4812C48.4825 23.4437 48.4228 23.4248 48.3624 23.4283C48.3012 23.4332 48.2454 23.4609 48.2065 23.5064L46.3069 25.7049C46.2272 25.796 46.2373 25.9324 46.3294 26.0111C48.4795 27.8779 51.1238 28.864 53.9773 28.864C58.0143 28.864 60.6227 26.7188 60.6227 23.3988C60.6227 20.5928 58.8991 19.0409 54.6718 18.0413ZM72.6864 21.8019C72.6864 24.1711 71.1855 25.8246 69.0366 25.8246C66.9124 25.8246 65.31 24.0961 65.31 21.8019C65.31 19.5078 66.9124 17.7791 69.0368 17.7791C71.1511 17.7791 72.6864 19.4706 72.6864 21.8019ZM69.756 14.7134C68.0061 14.7134 66.571 15.3838 65.3876 16.757V15.2112C65.3876 15.0892 65.2857 14.9898 65.1603 14.9898H62.0538C61.9282 14.9898 61.8267 15.0892 61.8267 15.2112V32.3872C61.8267 32.5092 61.9282 32.6086 62.0538 32.6086H65.1601C65.2857 32.6086 65.3876 32.5092 65.3876 32.3872V26.9655C66.5712 28.2576 68.0067 28.8887 69.756 28.8887C73.0071 28.8887 76.2984 26.4547 76.2984 21.8019C76.2984 17.148 73.0071 14.7134 69.756 14.7134ZM84.7351 25.8492C82.508 25.8492 80.829 24.1092 80.829 21.8019C80.829 19.4847 82.4498 17.8035 84.6836 17.8035C86.925 17.8035 88.6154 19.5435 88.6154 21.8524C88.6154 24.169 86.9835 25.8492 84.7351 25.8492ZM84.7351 14.7134C80.5479 14.7134 77.2678 17.849 77.2678 21.8526C77.2678 25.8125 80.5254 28.9149 84.6836 28.9149C88.8856 28.9149 92.176 25.7901 92.176 21.8019C92.176 17.8271 88.9082 14.7134 84.7351 14.7134ZM101.117 14.9898H97.6987V11.5905C97.6987 11.4685 97.5976 11.3691 97.4719 11.3691H94.3657C94.2401 11.3691 94.1378 11.4685 94.1378 11.5905V14.9898H92.6441C92.519 14.9898 92.4177 15.0892 92.4177 15.2112V17.8077C92.4177 17.9297 92.519 18.0291 92.6441 18.0291H94.1378V24.7478C94.1378 27.463 95.5274 28.8399 98.268 28.8399C99.3823 28.8399 100.307 28.616 101.178 28.1356C101.249 28.0971 101.293 28.0229 101.293 27.9439V25.4712C101.293 25.4335 101.283 25.3963 101.264 25.3633C101.246 25.3304 101.218 25.3026 101.185 25.2827C101.152 25.2629 101.115 25.2515 101.076 25.2498C101.037 25.2481 100.999 25.256 100.964 25.2729C100.366 25.5657 99.7869 25.7008 99.1403 25.7008C98.1436 25.7008 97.6987 25.2608 97.6987 24.2744V18.0291H101.117C101.243 18.0291 101.344 17.9297 101.344 17.8077V15.2112C101.344 15.0892 101.243 14.9898 101.117 14.9898H101.117ZM113.028 15.0029V14.5855C113.028 13.3572 113.512 12.8095 114.598 12.8095C115.246 12.8095 115.766 12.9347 116.349 13.1237C116.383 13.1348 116.42 13.1377 116.455 13.1324C116.491 13.1271 116.525 13.1136 116.554 13.093C116.583 13.0725 116.607 13.0454 116.623 13.0142C116.639 12.983 116.648 12.9484 116.648 12.9133V10.3671C116.648 10.3197 116.632 10.2735 116.604 10.2354C116.575 10.1972 116.534 10.1692 116.487 10.1553C115.872 9.97716 115.084 9.79426 113.905 9.79426C111.035 9.79426 109.519 11.366 109.519 14.3371V14.9765H108.026C107.966 14.9766 107.908 14.9999 107.865 15.0414C107.823 15.0828 107.799 15.139 107.798 15.1977V17.8077C107.798 17.9295 107.901 18.0292 108.026 18.0292H109.519V28.3927C109.519 28.5147 109.62 28.6141 109.745 28.6141H112.852C112.977 28.6141 113.08 28.5147 113.08 28.3927V18.0291H115.98L120.424 28.3897C119.919 29.4783 119.423 29.6948 118.746 29.6948C118.199 29.6948 117.622 29.5359 117.033 29.2225C117.005 29.208 116.975 29.1991 116.944 29.1963C116.913 29.1935 116.882 29.1968 116.852 29.206C116.793 29.2263 116.743 29.2692 116.718 29.3252L115.665 31.5718C115.641 31.6225 115.637 31.6804 115.655 31.7335C115.673 31.7866 115.712 31.831 115.762 31.8576C116.862 32.4366 117.854 32.6837 119.08 32.6837C121.374 32.6837 122.642 31.6446 123.76 28.849L129.15 15.3043C129.163 15.2709 129.168 15.2347 129.164 15.1991C129.16 15.1634 129.147 15.1292 129.126 15.0996C129.105 15.0699 129.077 15.0455 129.045 15.0287C129.012 15.0118 128.976 15.0029 128.939 15.0028H125.705C125.658 15.0028 125.612 15.0171 125.573 15.0437C125.534 15.0702 125.505 15.1078 125.49 15.1512L122.176 24.3544L118.548 15.145C118.531 15.1032 118.502 15.0671 118.464 15.0417C118.426 15.0163 118.381 15.0027 118.335 15.0028L113.028 15.0029ZM106.123 14.9898H103.016C102.891 14.9898 102.789 15.0892 102.789 15.2112V28.3925C102.789 28.5145 102.891 28.6139 103.016 28.6139H106.123C106.248 28.6139 106.351 28.5145 106.351 28.3925V15.2112C106.351 15.0892 106.248 14.9898 106.123 14.9898ZM104.586 8.98793C103.355 8.98793 102.356 9.95686 102.356 11.1537C102.356 12.3513 103.355 13.3215 104.586 13.3215C105.816 13.3215 106.814 12.3513 106.814 11.1537C106.814 9.95686 105.816 8.98793 104.586 8.98793ZM131.93 16.3009H131.36V17.0068H131.93C132.214 17.0068 132.383 16.8716 132.383 16.6537C132.383 16.4239 132.214 16.3009 131.93 16.3009ZM132.298 17.3078L132.917 18.1498H132.396L131.839 17.3776H131.36V18.1498H130.924V15.9183H131.947C132.48 15.9183 132.831 16.1835 132.831 16.6299C132.831 16.9957 132.614 17.2194 132.298 17.3078ZM131.814 15.1753C130.694 15.1753 129.846 16.0412 129.846 17.1013C129.846 18.1609 130.688 19.0151 131.802 19.0151C132.922 19.0151 133.77 18.1498 133.77 17.0892C133.77 16.0294 132.928 15.1753 131.814 15.1753ZM131.802 19.2278C130.573 19.2278 129.616 18.2675 129.616 17.1013C129.616 15.9353 130.585 14.9639 131.814 14.9639C133.043 14.9639 134 15.9241 134 17.0892C134 18.2555 133.031 19.2278 131.802 19.2278Z" fill="#1F1F23"/>
</svg>
