<svg width="35" height="35" viewBox="0 0 35 35" fill="none" xmlns="http://www.w3.org/2000/svg">
<path d="M27.3437 30.625H7.65625C5.845 30.625 4.375 29.155 4.375 27.3437V7.65625C4.375 5.845 5.845 4.375 7.65625 4.375H27.3437C29.155 4.375 30.625 5.845 30.625 7.65625V27.3437C30.625 29.155 29.155 30.625 27.3437 30.625ZM14.455 24.1675C20.6434 24.1675 24.0297 19.0356 24.0297 14.5928C24.0297 14.4484 24.0297 14.3041 24.0231 14.1597C24.6794 13.6872 25.2503 13.09 25.7031 12.4141C25.0994 12.6831 24.4497 12.8603 23.7672 12.9456C24.4628 12.5322 24.9944 11.8694 25.2503 11.0819C24.6006 11.4691 23.8787 11.7447 23.1109 11.8956C22.4941 11.2394 21.6213 10.8325 20.6566 10.8325C18.7994 10.8325 17.29 12.3419 17.29 14.1991C17.29 14.4616 17.3228 14.7175 17.3753 14.9669C14.5797 14.8291 12.0991 13.4837 10.4387 11.4494C10.15 11.9481 9.98594 12.5256 9.98594 13.1425C9.98594 14.3106 10.5831 15.3409 11.4822 15.9447C10.9309 15.925 10.4125 15.7741 9.95969 15.5247C9.95969 15.5378 9.95969 15.5509 9.95969 15.5706C9.95969 17.1981 11.1212 18.5631 12.6569 18.8716C12.3747 18.9503 12.0794 18.9897 11.7709 18.9897C11.5544 18.9897 11.3444 18.97 11.1409 18.9306C11.5675 20.2694 12.8144 21.2406 14.2844 21.2669C13.1294 22.1725 11.6791 22.7106 10.1041 22.7106C9.835 22.7106 9.56594 22.6975 9.30344 22.6647C10.7866 23.6097 12.5584 24.1675 14.455 24.1675Z" fill="#1F1F23"/>
</svg>
