<svg width="91" height="21" viewBox="0 0 91 21" fill="none" xmlns="http://www.w3.org/2000/svg">
<path d="M12.8481 0H13.3384C13.4262 2.45342 11.3166 4.97027 8.63192 4.92702C8.58652 2.57162 10.4388 0.452629 12.8481 0ZM72.84 1.25986C73.9629 0.547767 75.6033 1.63465 75.3642 2.88587C75.3218 3.77671 74.4229 4.25529 73.6118 4.44268C73.1759 4.26105 72.6765 4.15438 72.3587 3.79113C71.6051 3.07326 71.8684 1.68366 72.84 1.25986ZM20.8143 1.38383C22.0038 1.38672 23.1933 1.3896 24.3858 1.37518C26.6255 6.46942 28.7805 11.5982 30.9749 16.7098C33.2298 11.6242 35.3454 6.48383 37.57 1.38672C38.7625 1.38383 39.952 1.38383 41.1415 1.3896C41.1566 7.73793 41.1445 14.0891 41.1476 20.4375C40.2093 20.4346 39.271 20.4317 38.3297 20.4577C38.2722 15.8161 38.3751 11.1745 38.2783 6.53284C38.0694 6.89322 37.8757 7.25936 37.7032 7.63703C35.8751 11.9067 34.0137 16.1649 32.1765 20.4317C31.3714 20.4404 30.5633 20.4432 29.7582 20.3971C27.8332 15.7152 25.7206 11.1024 23.7714 6.43194C23.6473 11.0908 23.7472 15.7555 23.7199 20.4173C22.7484 20.4404 21.7798 20.4375 20.8083 20.4404C20.8083 14.0863 20.7992 7.73505 20.8143 1.38383Z" fill="#1F1F23"/>
<path d="M4.96696 4.91994C6.54405 4.64926 7.92703 5.5731 9.42526 5.82319C10.8416 5.53191 12.1579 4.73458 13.65 4.85815C15.312 4.82284 16.8527 5.65548 17.9021 6.86472C16.3068 7.868 15.1513 9.64803 15.497 11.5428C15.6093 13.2904 16.9892 14.5997 18.4874 15.3971C17.6807 17.3683 16.5737 19.3955 14.7267 20.6224C12.8706 21.7639 11.0145 19.6985 9.08255 20.1722C8.12113 20.3517 7.22644 20.7577 6.28019 20.996H5.51591C4.88811 20.7577 4.2876 20.4252 3.81447 19.9516C1.7036 17.8185 0.357014 14.994 0.017334 12.0577V10.4807C0.184141 7.85035 2.1828 5.27594 4.96696 4.91994ZM61.0931 7.29428C63.2494 5.99972 66.1458 5.94382 68.3871 7.0795C69.7761 7.79151 70.6162 9.23612 70.7042 10.7396C69.7822 10.7455 68.8632 10.7455 67.9443 10.7396C67.6986 10.21 67.55 9.59801 67.083 9.19787C66.255 8.47998 65.0509 8.39465 64.0076 8.58884C63.1251 8.78008 62.1424 9.44796 62.2516 10.4336C62.1637 11.2074 62.8764 11.7252 63.5406 11.9606C65.1965 12.5402 66.995 12.6491 68.6236 13.311C69.5123 13.667 70.3827 14.2408 70.7406 15.144C71.4927 16.7328 70.8376 18.7276 69.4183 19.7485C68.4417 20.4694 67.2407 20.8342 66.0427 20.996H63.8469C62.4639 20.7518 61.0324 20.2811 60.074 19.2337C59.337 18.5099 59.0732 17.5037 58.8669 16.5416C59.8557 16.5327 60.8444 16.5533 61.8331 16.6328C62.1697 17.4801 62.7005 18.3863 63.6892 18.607C64.966 18.8718 66.5674 18.9365 67.5682 17.9803C68.3022 17.2859 68.1232 15.9825 67.1861 15.5442C64.9812 14.5409 62.1819 14.7998 60.3257 13.0786C58.5819 11.4869 59.1187 8.47704 61.0931 7.29428ZM80.8218 7.25897C82.9751 6.00854 85.7987 5.94382 88.0248 7.05596C89.702 7.89743 90.7969 9.60978 91.0001 11.4133C90.0569 11.428 89.1167 11.4339 88.1735 11.4428C87.8399 10.7219 87.5821 9.90105 86.8936 9.41265C85.9292 8.6771 84.5826 8.60061 83.4331 8.89777C81.9773 9.35086 81.1463 10.7955 80.8946 12.1812C80.6732 13.8877 80.7035 15.7942 81.8227 17.2241C82.9569 18.7364 85.3741 18.9777 86.8936 17.895C87.576 17.4213 87.8429 16.6151 88.1704 15.9031C89.1136 15.909 90.0569 15.9061 91.0001 15.9178C90.8151 18.7129 88.1947 20.793 85.4196 20.996H83.8304C82.2078 20.796 80.5853 20.1487 79.4995 18.9277C78.1317 17.4036 77.6312 15.3206 77.7313 13.3375C77.6919 11.0044 78.7261 8.52411 80.8218 7.25897ZM44.4973 6.52048C45.4951 6.52048 46.4929 6.52048 47.4907 6.5146C47.5817 9.68039 47.3906 12.855 47.5877 16.0149C47.7121 18.4628 51.0998 19.1866 52.8285 17.8008C53.7535 17.0947 54.169 15.9237 54.1387 14.8086C54.1508 12.0459 54.1205 9.28025 54.1508 6.51754C55.1547 6.52048 56.1586 6.52048 57.1625 6.51754C57.1685 11.2662 57.1807 16.012 57.1625 20.7577C56.1829 20.7636 55.2063 20.7371 54.2327 20.64C54.2327 19.8721 54.2297 19.1042 54.2327 18.3363C53.4775 19.8192 51.9854 20.8754 50.2627 20.996H48.9647C47.6454 20.8136 46.3139 20.2487 45.5254 19.1719C44.6914 18.1009 44.476 16.7181 44.4912 15.4088C44.4973 12.446 44.4912 9.48326 44.4973 6.52048ZM72.8697 6.51754C73.825 6.52343 74.7803 6.52637 75.7327 6.49695C75.8146 6.91179 75.8843 7.32958 75.8934 7.75326C75.8752 12.0547 75.8964 16.3533 75.8813 20.6547C74.8744 20.6724 73.8675 20.6694 72.8605 20.6694C72.8636 15.9531 72.8454 11.2368 72.8697 6.51754Z" fill="#1F1F23"/>
</svg>
