<svg width="68" height="68" viewBox="0 0 68 68" fill="none" xmlns="http://www.w3.org/2000/svg">
<circle cx="2.125" cy="2.125" r="2.125" fill="#A9FACA" fill-opacity="0.9"/>
<circle cx="14.875" cy="2.125" r="2.125" fill="#A9FACA" fill-opacity="0.9"/>
<circle cx="27.625" cy="2.125" r="2.125" fill="#A9FACA" fill-opacity="0.9"/>
<circle cx="40.375" cy="2.125" r="2.125" fill="#A9FACA" fill-opacity="0.9"/>
<circle cx="53.125" cy="2.125" r="2.125" fill="#A9FACA" fill-opacity="0.9"/>
<circle cx="65.875" cy="2.125" r="2.125" fill="#A9FACA" fill-opacity="0.9"/>
<circle cx="2.125" cy="14.875" r="2.125" fill="#A9FACA" fill-opacity="0.9"/>
<circle cx="14.875" cy="14.875" r="2.125" fill="#A9FACA" fill-opacity="0.9"/>
<circle cx="27.625" cy="14.875" r="2.125" fill="#A9FACA" fill-opacity="0.9"/>
<circle cx="40.375" cy="14.875" r="2.125" fill="#A9FACA" fill-opacity="0.9"/>
<circle cx="53.125" cy="14.875" r="2.125" fill="#A9FACA" fill-opacity="0.9"/>
<circle cx="65.875" cy="14.875" r="2.125" fill="#A9FACA" fill-opacity="0.9"/>
<circle cx="2.125" cy="27.625" r="2.125" fill="#A9FACA" fill-opacity="0.9"/>
<circle cx="14.875" cy="27.625" r="2.125" fill="#A9FACA" fill-opacity="0.9"/>
<circle cx="27.625" cy="27.625" r="2.125" fill="#A9FACA" fill-opacity="0.9"/>
<circle cx="40.375" cy="27.625" r="2.125" fill="#A9FACA" fill-opacity="0.9"/>
<circle cx="53.125" cy="27.625" r="2.125" fill="#A9FACA" fill-opacity="0.9"/>
<circle cx="65.875" cy="27.625" r="2.125" fill="#A9FACA" fill-opacity="0.9"/>
<circle cx="2.125" cy="40.375" r="2.125" fill="#A9FACA" fill-opacity="0.9"/>
<circle cx="14.875" cy="40.375" r="2.125" fill="#A9FACA" fill-opacity="0.9"/>
<circle cx="27.625" cy="40.375" r="2.125" fill="#A9FACA" fill-opacity="0.9"/>
<circle cx="40.375" cy="40.375" r="2.125" fill="#A9FACA" fill-opacity="0.9"/>
<circle cx="53.125" cy="40.375" r="2.125" fill="#A9FACA" fill-opacity="0.9"/>
<circle cx="65.875" cy="40.375" r="2.125" fill="#A9FACA" fill-opacity="0.9"/>
<circle cx="2.125" cy="53.125" r="2.125" fill="#A9FACA" fill-opacity="0.9"/>
<circle cx="14.875" cy="53.125" r="2.125" fill="#A9FACA" fill-opacity="0.9"/>
<circle cx="27.625" cy="53.125" r="2.125" fill="#A9FACA" fill-opacity="0.9"/>
<circle cx="40.375" cy="53.125" r="2.125" fill="#A9FACA" fill-opacity="0.9"/>
<circle cx="53.125" cy="53.125" r="2.125" fill="#A9FACA" fill-opacity="0.9"/>
<circle cx="65.875" cy="53.125" r="2.125" fill="#A9FACA" fill-opacity="0.9"/>
<circle cx="2.125" cy="65.875" r="2.125" fill="#A9FACA" fill-opacity="0.9"/>
<circle cx="14.875" cy="65.875" r="2.125" fill="#A9FACA" fill-opacity="0.9"/>
<circle cx="27.625" cy="65.875" r="2.125" fill="#A9FACA" fill-opacity="0.9"/>
<circle cx="40.375" cy="65.875" r="2.125" fill="#A9FACA" fill-opacity="0.9"/>
<circle cx="53.125" cy="65.875" r="2.125" fill="#A9FACA" fill-opacity="0.9"/>
<circle cx="65.875" cy="65.875" r="2.125" fill="#A9FACA" fill-opacity="0.9"/>
</svg>
