<svg width="92" height="18" viewBox="0 0 92 18" fill="none" xmlns="http://www.w3.org/2000/svg">
<path d="M21.8077 11.5457C21.8077 15.1941 24.055 17.3777 27.3941 17.3777C29.0591 17.3777 30.4602 16.9137 31.2427 15.6945V17.3777H34.2906V0H31.1244V7.3878C30.4056 6.16863 29.0773 5.62274 27.4123 5.62274C24.1551 5.61364 21.8077 7.84271 21.8077 11.5457ZM31.2245 11.5457C31.2245 13.6292 29.8051 14.9303 28.1037 14.9303C26.3387 14.9303 24.983 13.6292 24.983 11.5457C24.983 9.42581 26.3478 8.09747 28.1037 8.09747C29.8051 8.09747 31.2245 9.44401 31.2245 11.5457ZM44.144 12.8923C43.7801 14.2388 42.8612 14.9121 41.4145 14.9121C39.7313 14.9121 38.3484 13.8931 38.312 12.0916H46.2912C46.3913 11.6458 46.4368 11.1727 46.4368 10.6541C46.4368 7.42419 44.235 5.60454 40.9869 5.60454C37.5205 5.60454 35.1367 8.07017 35.1367 11.4183C35.1367 15.1486 37.7661 17.3868 41.4054 17.3868C44.1531 17.3868 46.0183 16.2404 46.8371 13.9568L44.144 12.8923ZM38.312 9.98081C38.6123 8.67976 39.695 7.9155 40.996 7.9155C42.4153 7.9155 43.3798 8.67976 43.3798 9.88073L43.3616 9.98081H38.312ZM55.8899 12.8923C55.526 14.2388 54.607 14.9121 53.1604 14.9121C51.4772 14.9121 50.0943 13.8931 50.0579 12.0916H58.0371C58.1372 11.6458 58.1827 11.1727 58.1827 10.6541C58.1827 7.42419 55.9809 5.60454 52.7328 5.60454C49.2663 5.60454 46.8826 8.07017 46.8826 11.4183C46.8826 15.1486 49.512 17.3868 53.1513 17.3868C55.899 17.3868 57.7641 16.2404 58.583 13.9568L55.8899 12.8923ZM50.0579 9.98081C50.3581 8.67976 51.4408 7.9155 52.7419 7.9155C54.1612 7.9155 55.1256 8.67976 55.1256 9.88073L55.1074 9.98081H50.0579ZM69.3553 17.3959V14.5299H62.7045L69.1734 8.23394V5.61364H58.9378V8.34312H65.1883L58.7376 14.6664V17.3959H69.3553ZM78.6083 12.8923C78.2444 14.2388 77.3254 14.9121 75.8788 14.9121C74.1956 14.9121 72.8127 13.8931 72.7763 12.0916H80.7555C80.8556 11.6458 80.901 11.1727 80.901 10.6541C80.901 7.42419 78.6993 5.60454 75.4512 5.60454C71.9847 5.60454 69.601 8.07017 69.601 11.4183C69.601 15.1486 72.2304 17.3868 75.8697 17.3868C78.6174 17.3868 80.4825 16.2404 81.3014 13.9568L78.6083 12.8923ZM72.7763 9.98081C73.0765 8.67976 74.1592 7.9155 75.4603 7.9155C76.8796 7.9155 77.844 8.67976 77.844 9.88073L77.8258 9.98081H72.7763Z" fill="#1F1F23"/>
<path fill-rule="evenodd" clip-rule="evenodd" d="M14.6566 5.61365H18.5598V7.89732H14.6566V5.61365Z" fill="#1F1F23"/>
<path fill-rule="evenodd" clip-rule="evenodd" d="M14.6566 8.77985H18.5598V11.0635H14.6566V8.77985Z" fill="#1F1F23"/>
<path fill-rule="evenodd" clip-rule="evenodd" d="M14.6566 11.946H18.5598V14.2297H14.6566V11.946Z" fill="#1F1F23"/>
<path fill-rule="evenodd" clip-rule="evenodd" d="M0.508789 15.1122H4.41195V17.3959H0.508789V15.1122Z" fill="#1F1F23"/>
<path fill-rule="evenodd" clip-rule="evenodd" d="M5.2218 15.1122H9.12496V17.3959H5.2218V15.1122Z" fill="#1F1F23"/>
<path fill-rule="evenodd" clip-rule="evenodd" d="M9.9436 15.1122H13.8468V17.3959H9.9436V15.1122Z" fill="#1F1F23"/>
<path fill-rule="evenodd" clip-rule="evenodd" d="M14.6566 15.1122H18.5598V17.3959H14.6566V15.1122Z" fill="#1F1F23"/>
<path fill-rule="evenodd" clip-rule="evenodd" d="M9.9436 11.946H13.8468V14.2297H9.9436V11.946Z" fill="#1F1F23"/>
<path fill-rule="evenodd" clip-rule="evenodd" d="M5.2218 11.946H9.12496V14.2297H5.2218V11.946Z" fill="#1F1F23"/>
<path fill-rule="evenodd" clip-rule="evenodd" d="M5.2218 8.77985H9.12496V11.0635H5.2218V8.77985Z" fill="#1F1F23"/>
<path d="M88.4075 9.68057V10.0172H91.4918V9.11648C91.4918 7.09666 90.2271 5.63184 88.1072 5.63184C86.7425 5.63184 85.7781 6.29601 85.2777 7.3969V5.63184H82.0933V17.3959H85.2777V9.81704C85.2777 8.61607 85.9236 7.9519 86.9153 7.9519C87.8252 7.96099 88.4075 8.81623 88.4075 9.68057Z" fill="#1F1F23"/>
</svg>
