<svg width="54" height="54" viewBox="0 0 54 54" fill="none" xmlns="http://www.w3.org/2000/svg">
<path d="M42.7926 36.04V27.7037C42.7926 18.8027 35.577 11.587 26.6759 11.587C17.7749 11.587 10.5592 18.8027 10.5592 27.7037V36.04" stroke="black" stroke-width="1.5" stroke-linecap="round" stroke-linejoin="round"/>
<path d="M10.5592 34.8173C10.5592 31.5023 13.2464 28.8152 16.5613 28.8152C18.7712 28.8152 20.5627 30.6067 20.5627 32.8166V39.2633C20.5627 41.4731 18.7712 43.2646 16.5613 43.2646C13.2464 43.2646 10.5592 40.5775 10.5592 37.2626V34.8173Z" stroke="black" stroke-width="1.5" stroke-linecap="round" stroke-linejoin="round"/>
<path d="M32.7891 32.8166C32.7891 30.6067 34.5806 28.8152 36.7904 28.8152C40.1054 28.8152 42.7925 31.5023 42.7925 34.8173V37.2626C42.7925 40.5775 40.1054 43.2646 36.7904 43.2646C34.5806 43.2646 32.7891 41.4731 32.7891 39.2633V32.8166Z" stroke="black" stroke-width="1.5" stroke-linecap="round" stroke-linejoin="round"/>
</svg>
