<svg width="91" height="28" viewBox="0 0 91 28" fill="none" xmlns="http://www.w3.org/2000/svg">
<path d="M21.715 12.0027C17.3169 9.41085 10.0624 9.17258 5.86392 10.437C5.18952 10.64 4.47663 10.2624 4.27244 9.59334C4.06813 8.92389 4.44828 8.21685 5.12292 8.01351C9.94268 6.56184 17.9544 6.84218 23.0176 9.82457C23.6242 10.1819 23.8229 10.959 23.4635 11.5597C23.1038 12.1615 22.3199 12.36 21.7149 12.0027H21.715ZM21.5709 15.8414C21.2624 16.3383 20.6077 16.4941 20.1076 16.189C16.4412 13.9526 10.8499 13.3046 6.51192 14.6112C5.94946 14.7798 5.35522 14.4652 5.18439 13.908C5.10295 13.6401 5.13189 13.3511 5.26486 13.1043C5.39783 12.8575 5.62398 12.6732 5.89373 12.5916C10.8491 11.0993 17.0096 11.822 21.221 14.3902C21.721 14.6958 21.8784 15.3457 21.5709 15.8414ZM19.9014 19.528C19.8433 19.6227 19.7669 19.7051 19.6767 19.7705C19.5864 19.8359 19.484 19.883 19.3754 19.9091C19.2668 19.9352 19.1541 19.9398 19.0437 19.9226C18.9333 19.9053 18.8274 19.8667 18.7321 19.8088C15.5281 17.8657 11.4953 17.4269 6.74593 18.5034C6.6371 18.5281 6.52444 18.5313 6.41438 18.5128C6.30432 18.4942 6.19901 18.4544 6.10448 18.3955C6.00994 18.3366 5.92803 18.2597 5.86342 18.1694C5.7988 18.0791 5.75276 17.977 5.72791 17.869C5.70289 17.761 5.69959 17.6491 5.7182 17.5398C5.73681 17.4305 5.77697 17.326 5.83636 17.2321C5.89576 17.1382 5.97324 17.0569 6.06436 16.9928C6.15547 16.9287 6.25844 16.883 6.36736 16.8585C11.5647 15.6796 16.0229 16.1869 19.6192 18.3676C19.7146 18.4254 19.7975 18.5012 19.8633 18.5908C19.9291 18.6804 19.9764 18.782 20.0026 18.8898C20.0288 18.9975 20.0334 19.1094 20.016 19.2189C19.9987 19.3284 19.9598 19.4334 19.9015 19.528H19.9014ZM13.6439 0C6.1088 0 0 6.06154 0 13.5389C0 21.0169 6.1088 27.0782 13.644 27.0782C21.1795 27.0782 27.2882 21.0169 27.2882 13.5389C27.2882 6.06166 21.1797 0 13.644 0H13.6439ZM37.1208 12.499C34.765 11.9414 34.3457 11.5502 34.3457 10.728C34.3457 9.9514 35.0826 9.42892 36.1784 9.42892C37.2407 9.42892 38.2939 9.82578 39.3983 10.6429C39.4318 10.6677 39.4735 10.6775 39.5149 10.6711C39.5352 10.668 39.5547 10.661 39.5722 10.6502C39.5897 10.6395 39.6048 10.6253 39.6166 10.6086L40.7669 8.99955C40.8142 8.93335 40.8013 8.84192 40.7375 8.79136C39.4232 7.74493 37.9432 7.23614 36.2133 7.23614C33.6696 7.23614 31.8929 8.75062 31.8929 10.9181C31.8929 13.2421 33.4256 14.0649 36.0741 14.7002C38.3283 15.2156 38.7089 15.647 38.7089 16.4188C38.7089 17.2739 37.9396 17.8055 36.7015 17.8055C35.3265 17.8055 34.2048 17.3459 32.9501 16.2677C32.9184 16.2417 32.8779 16.2286 32.8369 16.2311C32.7953 16.2345 32.7574 16.2536 32.731 16.2852L31.4413 17.8082C31.3871 17.8714 31.394 17.9659 31.4565 18.0204C32.9164 19.3138 34.7118 19.9969 36.6492 19.9969C39.3903 19.9969 41.1613 18.5107 41.1613 16.2106C41.1613 14.2666 39.9911 13.1915 37.1208 12.499ZM49.3523 15.1043C49.3523 16.7457 48.3332 17.8912 46.8742 17.8912C45.4319 17.8912 44.3439 16.6937 44.3439 15.1043C44.3439 13.515 45.4319 12.3173 46.8743 12.3173C48.3099 12.3173 49.3523 13.4891 49.3523 15.1043ZM47.3626 10.1934C46.1745 10.1934 45.2001 10.6578 44.3966 11.6092V10.5383C44.3966 10.4538 44.3274 10.3849 44.2422 10.3849H42.133C42.0477 10.3849 41.9788 10.4538 41.9788 10.5383V22.4378C41.9788 22.5223 42.0477 22.5912 42.133 22.5912H44.2421C44.3274 22.5912 44.3966 22.5223 44.3966 22.4378V18.6817C45.2002 19.5768 46.1749 20.014 47.3626 20.014C49.5701 20.014 51.8048 18.3277 51.8048 15.1043C51.8048 11.8801 49.5701 10.1934 47.3626 10.1934ZM57.5331 17.9083C56.0209 17.9083 54.8809 16.7028 54.8809 15.1043C54.8809 13.499 55.9814 12.3342 57.4981 12.3342C59.0199 12.3342 60.1677 13.5397 60.1677 15.1393C60.1677 16.7442 59.0597 17.9083 57.5331 17.9083ZM57.5331 10.1934C54.6901 10.1934 52.4629 12.3657 52.4629 15.1394C52.4629 17.8828 54.6748 20.0322 57.4981 20.0322C60.3511 20.0322 62.5852 17.8673 62.5852 15.1043C62.5852 12.3506 60.3665 10.1934 57.5331 10.1934ZM68.6562 10.3849H66.3351V8.02988C66.3351 7.94536 66.2664 7.87649 66.1811 7.87649H64.072C63.9867 7.87649 63.9173 7.94536 63.9173 8.02988V10.3849H62.9031C62.8181 10.3849 62.7493 10.4538 62.7493 10.5383V12.3371C62.7493 12.4216 62.8181 12.4905 62.9031 12.4905H63.9173V17.1452C63.9173 19.0263 64.8608 19.9802 66.7216 19.9802C67.4782 19.9802 68.106 19.8251 68.6977 19.4922C68.7456 19.4656 68.7755 19.4142 68.7755 19.3595V17.6464C68.7756 17.6202 68.7689 17.5945 68.7561 17.5716C68.7433 17.5488 68.7248 17.5296 68.7024 17.5158C68.68 17.502 68.6544 17.4942 68.6281 17.493C68.6018 17.4918 68.5756 17.4973 68.552 17.509C68.1457 17.7119 67.7529 17.8055 67.3138 17.8055C66.6371 17.8055 66.3351 17.5006 66.3351 16.8172V12.4905H68.6563C68.7416 12.4905 68.8101 12.4216 68.8101 12.3371V10.5383C68.8101 10.4538 68.7416 10.3849 68.6563 10.3849H68.6562ZM76.7434 10.394V10.1048C76.7434 9.25382 77.0721 8.87442 77.8096 8.87442C78.2495 8.87442 78.6026 8.96111 78.9982 9.09207C79.0214 9.09973 79.0461 9.10179 79.0703 9.09809C79.0945 9.09439 79.1174 9.08504 79.1373 9.0708C79.1571 9.05656 79.1732 9.03784 79.1843 9.0162C79.1954 8.99455 79.2011 8.9706 79.201 8.94632V7.1823C79.2012 7.14947 79.1906 7.11747 79.171 7.09105C79.1514 7.06462 79.1237 7.04517 79.092 7.03558C78.6741 6.91215 78.1394 6.78543 77.3388 6.78543C75.3904 6.78543 74.3606 7.87431 74.3606 9.93273V10.3757H73.3474C73.3064 10.3757 73.2671 10.3919 73.2381 10.4206C73.209 10.4493 73.1926 10.4883 73.1924 10.5289V12.3371C73.1924 12.4215 73.2621 12.4906 73.3474 12.4906H74.3606V19.6704C74.3606 19.7549 74.4294 19.8238 74.5145 19.8238H76.6237C76.7088 19.8238 76.7783 19.7549 76.7783 19.6704V12.4905H78.7478L81.7648 19.6683C81.4222 20.4225 81.0854 20.5725 80.6257 20.5725C80.254 20.5725 79.8627 20.4624 79.4625 20.2452C79.4439 20.2352 79.4234 20.2291 79.4023 20.2271C79.3812 20.2252 79.3599 20.2274 79.3397 20.2338C79.2994 20.2479 79.2655 20.2776 79.2484 20.3164L78.5336 21.8728C78.5171 21.908 78.5148 21.9481 78.5271 21.9849C78.5394 22.0217 78.5654 22.0524 78.5998 22.0709C79.3462 22.472 80.0201 22.6432 80.8526 22.6432C82.4102 22.6432 83.2711 21.9233 84.0302 19.9865L87.6897 10.6028C87.6988 10.5796 87.7021 10.5546 87.6993 10.5299C87.6964 10.5052 87.6876 10.4815 87.6735 10.4609C87.6594 10.4404 87.6405 10.4235 87.6183 10.4118C87.5962 10.4001 87.5715 10.394 87.5465 10.3939H85.3506C85.3185 10.3939 85.2872 10.4038 85.261 10.4222C85.2348 10.4406 85.215 10.4666 85.2044 10.4967L82.9549 16.8726L80.4909 10.4924C80.4798 10.4634 80.4601 10.4385 80.4344 10.4208C80.4086 10.4032 80.3781 10.3938 80.3468 10.3939L76.7434 10.394ZM72.055 10.3849H69.9456C69.8605 10.3849 69.7911 10.4538 69.7911 10.5383V19.6702C69.7911 19.7548 69.8605 19.8236 69.9456 19.8236H72.055C72.1401 19.8236 72.2096 19.7548 72.2096 19.6702V10.5383C72.2096 10.4538 72.14 10.3849 72.055 10.3849ZM71.0111 6.22681C70.1754 6.22681 69.4974 6.89808 69.4974 7.72722C69.4974 8.55697 70.1754 9.22909 71.0111 9.22909C71.8464 9.22909 72.5239 8.55697 72.5239 7.72722C72.5239 6.89808 71.8464 6.22681 71.0111 6.22681ZM89.577 11.2932H89.1905V11.7822H89.577C89.7698 11.7822 89.8849 11.6886 89.8849 11.5377C89.8849 11.3785 89.7698 11.2932 89.577 11.2932ZM89.8274 11.9908L90.2474 12.5742H89.8934L89.5154 12.0392H89.1904V12.5742H88.8942V11.0281H89.5889C89.9509 11.0281 90.1891 11.2119 90.1891 11.5212C90.1891 11.7746 90.0415 11.9296 89.8274 11.9908ZM89.4983 10.5134C88.738 10.5134 88.1626 11.1133 88.1626 11.8477C88.1626 12.5818 88.7339 13.1736 89.4906 13.1736C90.2507 13.1736 90.8268 12.5742 90.8268 11.8393C90.8268 11.1051 90.255 10.5134 89.4983 10.5134ZM89.4906 13.321C88.6558 13.321 88.0062 12.6556 88.0062 11.8477C88.0062 11.0399 88.6642 10.3669 89.4982 10.3669C90.3332 10.3669 90.9827 11.0322 90.9827 11.8393C90.9827 12.6474 90.3251 13.321 89.4906 13.321Z" fill="#1F1F23"/>
</svg>
